<svg width="63" height="66" viewBox="0 0 63 66" fill="none" xmlns="http://www.w3.org/2000/svg">
<path d="M57.7252 -126.892C57.1549 -126.892 56.694 -127.354 56.694 -127.923V-132.922H9.30286V-127.923C9.30286 -127.354 8.84189 -126.892 8.27161 -126.892C7.70132 -126.892 7.24036 -127.354 7.24036 -127.923V-145.842C7.24036 -148.874 9.70609 -151.342 12.7359 -151.342H53.2558C56.2876 -151.342 58.7554 -148.874 58.7554 -145.842V-127.923C58.7564 -127.354 58.2945 -126.892 57.7252 -126.892ZM9.30286 -134.984H56.6929V-145.842C56.6929 -147.738 55.1512 -149.28 53.2558 -149.28H12.7369C10.8436 -149.28 9.30389 -147.738 9.30389 -145.842V-134.984H9.30286ZM61.8739 -151.545H4.12598C3.55569 -151.545 3.09473 -152.007 3.09473 -152.577C3.09473 -153.146 3.55569 -153.608 4.12598 -153.608H61.8739C62.4442 -153.608 62.9052 -153.146 62.9052 -152.577C62.9052 -152.007 62.4442 -151.545 61.8739 -151.545ZM-372.828 -34.2148C-373.397 -34.2148 -373.859 -34.6768 -373.859 -35.2461V-44.7985H-385.653V-35.2461C-385.653 -34.6768 -386.115 -34.2148 -386.685 -34.2148C-387.254 -34.2148 -387.716 -34.6768 -387.716 -35.2461V-50.3497H-389.63C-390.199 -50.3497 -390.661 -50.8117 -390.661 -51.381C-390.661 -51.9502 -390.199 -52.4122 -389.63 -52.4122H-373.751L-372.281 -65.6391V-72.0039C-372.281 -72.5732 -371.819 -73.0352 -371.25 -73.0352C-370.681 -73.0352 -370.219 -72.5732 -370.219 -72.0039V-65.5968C-370.219 -65.572 -370.219 -65.5473 -370.22 -65.5225C-370.221 -65.4998 -370.223 -65.4761 -370.226 -65.4534L-371.796 -51.3243V-35.2461C-371.797 -34.6758 -372.259 -34.2148 -372.828 -34.2148ZM-385.653 -46.86H-373.859V-50.3497H-385.653V-46.86ZM-400.126 -34.2148C-400.157 -34.2148 -400.188 -34.2158 -400.218 -34.2189H-407.052C-407.621 -34.2189 -408.083 -34.6809 -408.083 -35.2502C-408.083 -35.8194 -407.621 -36.2814 -407.052 -36.2814H-401.157V-59.8238H-417.893C-418.463 -59.8238 -418.925 -60.2858 -418.925 -60.8551C-418.925 -61.4243 -418.463 -61.8863 -417.893 -61.8863H-382.353C-381.784 -61.8863 -381.322 -61.4243 -381.322 -60.8551C-381.322 -60.2858 -381.784 -59.8238 -382.353 -59.8238H-399.095V-36.2814H-393.197C-392.628 -36.2814 -392.166 -35.8194 -392.166 -35.2502C-392.166 -34.6809 -392.628 -34.2189 -393.197 -34.2189H-400.034C-400.064 -34.2158 -400.095 -34.2148 -400.126 -34.2148ZM-413.567 -34.2148C-414.137 -34.2148 -414.599 -34.6768 -414.599 -35.2461V-44.7985H-426.391V-35.2461C-426.391 -34.6768 -426.853 -34.2148 -427.422 -34.2148C-427.991 -34.2148 -428.453 -34.6768 -428.453 -35.2461V-51.3243L-430.023 -65.4534C-430.026 -65.4771 -430.028 -65.5019 -430.029 -65.5266C-430.031 -65.5493 -430.031 -65.5731 -430.031 -65.5968V-72.0039C-430.031 -72.5732 -429.569 -73.0352 -429 -73.0352C-428.431 -73.0352 -427.969 -72.5732 -427.969 -72.0039V-65.6391L-426.499 -52.4122H-410.622C-410.053 -52.4122 -409.591 -51.9502 -409.591 -51.381C-409.591 -50.8117 -410.053 -50.3497 -410.622 -50.3497H-412.536V-35.2461C-412.536 -34.6758 -412.997 -34.2148 -413.567 -34.2148ZM-426.391 -46.86H-414.599V-50.3497H-426.391V-46.86ZM-288.772 -38.9781C-289.341 -38.9781 -289.803 -39.4401 -289.803 -40.0094V-42.8474H-313.501C-314.071 -42.8474 -314.532 -43.3084 -314.532 -43.8786V-63.6302H-337.198V-40.0094C-337.198 -39.4401 -337.66 -38.9781 -338.229 -38.9781C-338.8 -38.9781 -339.261 -39.4401 -339.261 -40.0094V-63.6302H-342.375C-342.944 -63.6302 -343.406 -64.0922 -343.406 -64.6614V-67.2406C-343.406 -67.8098 -342.944 -68.2718 -342.375 -68.2718H-284.625C-284.056 -68.2718 -283.594 -67.8098 -283.594 -67.2406V-64.6614C-283.594 -64.0922 -284.056 -63.6302 -284.625 -63.6302H-287.74V-40.0094C-287.74 -39.4401 -288.201 -38.9781 -288.772 -38.9781ZM-312.47 -44.9099H-289.803V-53.2372H-312.47V-44.9099ZM-312.47 -55.2997H-289.803V-63.6302H-312.47V-55.2997ZM-288.772 -65.6927H-285.656V-66.2093H-341.344V-65.6927H-288.772ZM-299.785 -48.0418H-302.479C-303.049 -48.0418 -303.51 -48.5038 -303.51 -49.0731C-303.51 -49.6433 -303.049 -50.1043 -302.479 -50.1043H-299.785C-299.216 -50.1043 -298.754 -49.6433 -298.754 -49.0731C-298.754 -48.5038 -299.216 -48.0418 -299.785 -48.0418ZM-299.785 -58.4358H-302.479C-303.049 -58.4358 -303.51 -58.8978 -303.51 -59.467C-303.51 -60.0373 -303.049 -60.4983 -302.479 -60.4983H-299.785C-299.216 -60.4983 -298.754 -60.0373 -298.754 -59.467C-298.754 -58.8978 -299.216 -58.4358 -299.785 -58.4358ZM-202.147 -38.9781C-202.716 -38.9781 -203.178 -39.4401 -203.178 -40.0094V-53.2372H-250.573V-40.0094C-250.573 -39.4401 -251.035 -38.9781 -251.604 -38.9781C-252.174 -38.9781 -252.636 -39.4401 -252.636 -40.0094V-63.6302H-255.75C-256.319 -63.6302 -256.781 -64.0922 -256.781 -64.6614V-67.2406C-256.781 -67.8098 -256.319 -68.2718 -255.75 -68.2718H-198C-197.431 -68.2718 -196.969 -67.8098 -196.969 -67.2406V-64.6614C-196.969 -64.0922 -197.431 -63.6302 -198 -63.6302H-201.115V-40.0094C-201.115 -39.4401 -201.576 -38.9781 -202.147 -38.9781ZM-225.845 -55.2997H-203.178V-63.6302H-225.845V-55.2997ZM-250.572 -55.2997H-227.906V-63.6302H-250.572V-55.2997ZM-202.147 -65.6927H-199.031V-66.2093H-254.719V-65.6927H-202.147ZM-213.16 -58.4358H-215.854C-216.423 -58.4358 -216.885 -58.8978 -216.885 -59.467C-216.885 -60.0363 -216.423 -60.4983 -215.854 -60.4983H-213.16C-212.591 -60.4983 -212.129 -60.0363 -212.129 -59.467C-212.129 -58.8978 -212.591 -58.4358 -213.16 -58.4358ZM-237.892 -58.5946H-240.588C-241.157 -58.5946 -241.619 -59.0566 -241.619 -59.6258C-241.619 -60.1951 -241.157 -60.6571 -240.588 -60.6571H-237.892C-237.323 -60.6571 -236.861 -60.1951 -236.861 -59.6258C-236.861 -59.0566 -237.322 -58.5946 -237.892 -58.5946ZM-128.36 -23.7187C-128.93 -23.7187 -129.391 -24.1807 -129.391 -24.75V-27.8654H-151.112V-24.75C-151.112 -24.1807 -151.573 -23.7187 -152.143 -23.7187C-152.714 -23.7187 -153.175 -24.1807 -153.175 -24.75V-44.221H-156.936C-157.506 -44.221 -157.967 -44.683 -157.967 -45.2523C-157.917 -47.2354 -156.349 -48.7637 -154.393 -48.7637H-152.914L-152.906 -71.3367C-152.634 -78.1925 -147.076 -83.5312 -140.252 -83.5312C-133.424 -83.5312 -127.866 -78.1925 -127.598 -71.3769L-127.585 -48.7637H-126.105C-124.181 -48.7637 -122.577 -47.2013 -122.531 -45.2822C-122.531 -45.2739 -122.531 -45.2657 -122.531 -45.2574V-45.2523C-122.531 -44.683 -122.992 -44.221 -123.562 -44.221H-127.326V-24.75C-127.328 -24.1807 -127.789 -23.7187 -128.36 -23.7187ZM-151.112 -29.9279H-129.391V-36.0442H-151.112V-29.9279ZM-151.112 -38.1057H-129.391V-44.221H-151.112V-38.1057ZM-128.36 -46.2835H-125.067C-125.339 -46.5413 -125.706 -46.7012 -126.107 -46.7012H-154.395C-154.795 -46.7012 -155.162 -46.5413 -155.435 -46.2835H-128.36ZM-150.852 -48.7637H-129.648L-129.659 -71.3357C-129.883 -77.0003 -134.536 -81.4687 -140.251 -81.4687C-145.963 -81.4687 -150.617 -77.0003 -150.844 -71.2955L-150.852 -48.7637ZM-138.955 -31.9512H-141.544C-142.115 -31.9512 -142.576 -32.4132 -142.576 -32.9825C-142.576 -33.5517 -142.115 -34.0137 -141.544 -34.0137H-138.955C-138.385 -34.0137 -137.924 -33.5517 -137.924 -32.9825C-137.924 -32.4132 -138.385 -31.9512 -138.955 -31.9512ZM-138.955 -40.1342H-141.544C-142.115 -40.1342 -142.576 -40.5962 -142.576 -41.1654C-142.576 -41.7347 -142.115 -42.1967 -141.544 -42.1967H-138.955C-138.385 -42.1967 -137.924 -41.7347 -137.924 -41.1654C-137.924 -40.5962 -138.385 -40.1342 -138.955 -40.1342ZM-146.097 -58.2367C-146.361 -58.2367 -146.625 -58.3378 -146.826 -58.5389C-147.23 -58.9421 -147.23 -59.5939 -146.826 -59.9971L-135.131 -71.6925C-134.728 -72.0957 -134.076 -72.0957 -133.673 -71.6925C-133.27 -71.2893 -133.27 -70.6375 -133.673 -70.2343L-145.368 -58.5389C-145.569 -58.3368 -145.833 -58.2367 -146.097 -58.2367ZM-141.003 -58.9586C-141.267 -58.9586 -141.531 -59.0597 -141.732 -59.2608C-142.135 -59.664 -142.135 -60.3168 -141.732 -60.72L-135.853 -66.5961C-135.45 -66.9982 -134.798 -66.9982 -134.395 -66.5961C-133.991 -66.1939 -133.991 -65.54 -134.395 -65.1368L-140.274 -59.2608C-140.476 -59.0597 -140.74 -58.9586 -141.003 -58.9586ZM-145.375 -63.3332C-145.639 -63.3332 -145.903 -63.4342 -146.104 -63.6353C-146.508 -64.0375 -146.508 -64.6903 -146.104 -65.0935L-140.23 -70.9696C-139.827 -71.3728 -139.175 -71.3728 -138.772 -70.9696C-138.369 -70.5674 -138.369 -69.9146 -138.772 -69.5114L-144.646 -63.6353C-144.847 -63.4342 -145.111 -63.3332 -145.375 -63.3332ZM-67.8078 -23.7187C-67.9439 -23.7187 -68.0832 -23.7455 -68.2162 -23.8033C-68.739 -24.0302 -68.9783 -24.6376 -68.7534 -25.1594L-68.0089 -26.8785H-69.6476C-70.2178 -26.8785 -70.6788 -27.3405 -70.6788 -27.9097V-49.9517C-70.6788 -50.5529 -70.1385 -51.0252 -69.5558 -50.9788H-60.9098V-63.0991H-69.6476C-69.9497 -63.0991 -70.2354 -63.2311 -70.4324 -63.4611C-70.6273 -63.691 -70.7129 -63.9942 -70.6664 -64.2922L-67.7604 -82.6619C-67.681 -83.1631 -67.2489 -83.5312 -66.7415 -83.5312H-53.0269C-52.5195 -83.5312 -52.0885 -83.1631 -52.0091 -82.6619L-49.0968 -64.2922C-49.0494 -63.9942 -49.135 -63.69 -49.3309 -63.46C-49.5269 -63.2301 -49.8135 -63.0981 -50.1157 -63.0981H-52.4174V-58.1945C-52.4174 -57.6252 -52.8784 -57.1632 -53.4487 -57.1632C-54.019 -57.1632 -54.4799 -57.6252 -54.4799 -58.1945V-63.0981H-58.8483V-50.9778H-37.6943C-37.1106 -51.0242 -36.5713 -50.5519 -36.5713 -49.9506V-27.9087C-36.5713 -27.3395 -37.0323 -26.8775 -37.6025 -26.8775H-39.1989L-38.4533 -25.1594C-38.2254 -24.6366 -38.4667 -24.0291 -38.9885 -23.8033C-39.5124 -23.5775 -40.1198 -23.8167 -40.3446 -24.3396L-41.447 -26.8785H-65.7608L-66.8591 -24.3406C-67.0282 -23.9518 -67.4087 -23.7187 -67.8078 -23.7187ZM-40.7478 -28.941H-38.6338V-37.8974H-68.6163V-28.941H-66.462C-66.4455 -28.942 -66.4311 -28.942 -66.4146 -28.941H-40.7942C-40.7787 -28.942 -40.7623 -28.942 -40.7478 -28.941ZM-68.6163 -39.9599H-38.6338V-48.9173H-68.6163V-39.9599ZM-53.4477 -65.1626H-51.3212L-53.9066 -81.4687H-65.8598L-68.44 -65.1616H-53.4477V-65.1626ZM-51.8812 -32.3833H-55.374C-55.9443 -32.3833 -56.4053 -32.8453 -56.4053 -33.4146C-56.4053 -33.9848 -55.9443 -34.4458 -55.374 -34.4458H-51.8812C-51.3109 -34.4458 -50.8499 -33.9848 -50.8499 -33.4146C-50.8499 -32.8463 -51.3109 -32.3833 -51.8812 -32.3833ZM-51.8812 -43.4115H-55.374C-55.9443 -43.4115 -56.4053 -43.8735 -56.4053 -44.4427C-56.4053 -45.013 -55.9443 -45.474 -55.374 -45.474H-51.8812C-51.3109 -45.474 -50.8499 -45.013 -50.8499 -44.4427C-50.8499 -43.8735 -51.3109 -43.4115 -51.8812 -43.4115ZM60.2559 -41.2397C59.8568 -41.2397 59.4773 -41.4727 59.3092 -41.8615L58.3439 -44.0859H33.002C33 -44.0859 32.9999 -44.0859 32.9979 -44.0859H7.69513L6.73401 -41.8615C6.50818 -41.3407 5.90283 -41.0984 5.37897 -41.3242C4.85611 -41.5501 4.61584 -42.1575 4.84167 -42.6803L5.44907 -44.0849H4.12598C3.55569 -44.0849 3.09473 -44.5469 3.09473 -45.1161V-64.976C3.09473 -65.5679 3.62582 -66.0402 4.19095 -66.0051H32.934C32.9556 -66.0072 32.9803 -66.0134 32.9999 -66.0072C33.0257 -66.0134 33.0443 -66.0072 33.0659 -66.0051H61.809C62.3699 -66.0402 62.9052 -65.5679 62.9052 -64.976V-45.1161C62.9052 -44.5469 62.4442 -44.0849 61.8739 -44.0849H60.5921L61.2005 -42.6814C61.4274 -42.1585 61.1871 -41.5511 60.6642 -41.3253C60.5312 -41.2675 60.392 -41.2397 60.2559 -41.2397ZM59.0431 -46.1474H60.8427V-54.0158H34.0333V-46.1474H58.9977C59.0122 -46.1484 59.0287 -46.1484 59.0431 -46.1474ZM7.04028 -46.1474H31.9666V-54.0158H5.15723V-46.1474H6.9949C7.0083 -46.1484 7.02481 -46.1484 7.04028 -46.1474ZM34.0333 -56.0783H60.8427V-63.9427H34.0333V-56.0783ZM5.15723 -56.0783H31.9666V-63.9427H5.15723V-56.0783ZM49.0111 -49.0493H45.8638C45.2935 -49.0493 44.8325 -49.5113 44.8325 -50.0806C44.8325 -50.6498 45.2935 -51.1118 45.8638 -51.1118H49.0111C49.5814 -51.1118 50.0424 -50.6498 50.0424 -50.0806C50.0424 -49.5113 49.5814 -49.0493 49.0111 -49.0493ZM20.131 -49.0493H16.9846C16.4144 -49.0493 15.9534 -49.5113 15.9534 -50.0806C15.9534 -50.6498 16.4144 -51.1118 16.9846 -51.1118H20.132C20.7023 -51.1118 21.1633 -50.6498 21.1633 -50.0806C21.1633 -49.5113 20.7013 -49.0493 20.131 -49.0493ZM49.0111 -58.9803H45.8638C45.2935 -58.9803 44.8325 -59.4423 44.8325 -60.0115C44.8325 -60.5808 45.2935 -61.0428 45.8638 -61.0428H49.0111C49.5814 -61.0428 50.0424 -60.5808 50.0424 -60.0115C50.0424 -59.4423 49.5814 -58.9803 49.0111 -58.9803ZM20.131 -58.9803H16.9846C16.4144 -58.9803 15.9534 -59.4423 15.9534 -60.0115C15.9534 -60.5808 16.4144 -61.0428 16.9846 -61.0428H20.132C20.7023 -61.0428 21.1633 -60.5808 21.1633 -60.0115C21.1633 -59.4423 20.7013 -58.9803 20.131 -58.9803ZM-427.339 45.3822C-427.476 45.3822 -427.615 45.3554 -427.748 45.2977C-428.271 45.0708 -428.511 44.4634 -428.284 43.9416L-427.677 42.538H-429C-429.569 42.538 -430.031 42.0771 -430.031 41.5068V21.648C-430.031 21.0777 -429.569 20.6168 -429 20.6168H-400.126C-400.123 20.6168 -400.123 20.6168 -400.122 20.6168H-371.25C-370.681 20.6168 -370.219 21.0777 -370.219 21.648V41.5058C-370.219 42.076 -370.681 42.537 -371.25 42.537H-372.532L-371.923 43.9395C-371.697 44.4624 -371.937 45.0698 -372.46 45.2956C-372.98 45.5246 -373.589 45.2832 -373.816 44.7604L-374.781 42.536H-400.122C-400.123 42.535 -400.123 42.535 -400.126 42.536H-425.429L-426.392 44.7594C-426.56 45.1492 -426.94 45.3822 -427.339 45.3822ZM-374.081 40.4745H-372.281V22.6793H-399.091V40.4745H-374.127C-374.112 40.4745 -374.096 40.4745 -374.081 40.4745ZM-426.083 40.4745H-401.157V32.6081H-427.969V40.4745H-426.129C-426.114 40.4745 -426.098 40.4745 -426.083 40.4745ZM-427.969 30.5456H-401.157V22.6793H-427.969V30.5456ZM-412.99 37.5736H-416.137C-416.706 37.5736 -417.168 37.1126 -417.168 36.5424C-417.168 35.9721 -416.706 35.5111 -416.137 35.5111H-412.99C-412.421 35.5111 -411.959 35.9721 -411.959 36.5424C-411.959 37.1126 -412.421 37.5736 -412.99 37.5736ZM-396.912 34.1787C-397.481 34.1787 -397.943 33.7178 -397.943 33.1475V29.9991C-397.943 29.4288 -397.481 28.9678 -396.912 28.9678C-396.342 28.9678 -395.88 29.4288 -395.88 29.9991V33.1475C-395.88 33.7167 -396.342 34.1787 -396.912 34.1787ZM-412.99 27.6396H-416.137C-416.706 27.6396 -417.168 27.1786 -417.168 26.6083C-417.168 26.0381 -416.706 25.5771 -416.137 25.5771H-412.99C-412.421 25.5771 -411.959 26.0381 -411.959 26.6083C-411.959 27.1786 -412.421 27.6396 -412.99 27.6396ZM-287.478 49.6207C-288.048 49.6207 -288.51 49.1597 -288.51 48.5894V48.2285H-313.496C-313.497 48.2285 -313.497 48.2285 -313.5 48.2285H-338.449V48.5894C-338.449 49.1597 -338.911 49.6207 -339.48 49.6207C-340.05 49.6207 -340.512 49.1597 -340.512 48.5894V48.2285H-342.282C-342.873 48.2935 -343.405 47.8026 -343.405 47.2014V17.4106C-343.405 16.8403 -342.943 16.3793 -342.374 16.3793H-284.624C-284.055 16.3793 -283.593 16.8403 -283.593 17.4106C-283.593 17.4415 -283.594 17.4725 -283.597 17.5024V27.2487C-283.595 27.2786 -283.593 27.3096 -283.593 27.3405V47.1983C-283.593 47.7686 -284.055 48.2295 -284.624 48.2295H-286.446V48.5905C-286.447 49.1597 -286.909 49.6207 -287.478 49.6207ZM-312.466 46.167H-285.656V38.2996H-312.466V46.167ZM-341.344 46.167H-314.532V38.2996H-341.344V46.167ZM-312.466 36.2371H-285.656V27.4323C-285.658 27.4024 -285.66 27.3714 -285.66 27.3405V18.4418H-312.466V36.2371ZM-341.344 36.2371H-314.528V18.4418H-341.344V36.2371ZM-297.487 43.2682H-300.634C-301.203 43.2682 -301.665 42.8072 -301.665 42.2369C-301.665 41.6666 -301.203 41.2057 -300.634 41.2057H-297.487C-296.917 41.2057 -296.456 41.6666 -296.456 42.2369C-296.456 42.8072 -296.917 43.2682 -297.487 43.2682ZM-326.365 43.2682H-329.512C-330.081 43.2682 -330.543 42.8072 -330.543 42.2369C-330.543 41.6666 -330.081 41.2057 -329.512 41.2057H-326.365C-325.796 41.2057 -325.334 41.6666 -325.334 42.2369C-325.334 42.8072 -325.796 43.2682 -326.365 43.2682ZM-287.68 29.9403C-288.249 29.9403 -288.711 29.4793 -288.711 28.9091V25.7648C-288.711 25.1945 -288.249 24.7335 -287.68 24.7335C-287.11 24.7335 -286.648 25.1945 -286.648 25.7648V28.9091C-286.648 29.4793 -287.11 29.9403 -287.68 29.9403ZM-339.339 29.9403C-339.908 29.9403 -340.37 29.4793 -340.37 28.9091V25.7648C-340.37 25.1945 -339.908 24.7335 -339.339 24.7335C-338.77 24.7335 -338.308 25.1945 -338.308 25.7648V28.9091C-338.308 29.4793 -338.769 29.9403 -339.339 29.9403ZM-200.854 54.9378C-201.423 54.9378 -201.885 54.4768 -201.885 53.9065V53.5405H-226.871C-226.872 53.5405 -226.872 53.5405 -226.875 53.5405H-251.824V53.9065C-251.824 54.4768 -252.286 54.9378 -252.855 54.9378C-253.425 54.9378 -253.887 54.4768 -253.887 53.9065V53.5405H-255.657C-256.245 53.6075 -256.78 53.1145 -256.78 52.5133V42.5803C-256.78 42.0101 -256.318 41.5491 -255.749 41.5491H-251.534V38.9039H-255.75C-256.319 38.9039 -256.781 38.443 -256.781 37.8727C-256.781 37.3024 -256.319 36.8414 -255.75 36.8414H-231.062L-230.367 34.5851H-245.389C-245.958 34.5851 -246.42 34.1241 -246.42 33.5538V12.0935C-246.42 11.5232 -245.958 11.0622 -245.389 11.0622H-208.361C-207.792 11.0622 -207.33 11.5232 -207.33 12.0935V33.5548C-207.33 34.1251 -207.792 34.5861 -208.361 34.5861H-223.385L-222.69 36.8425H-198C-197.431 36.8425 -196.969 37.3034 -196.969 37.8737C-196.969 38.444 -197.431 38.905 -198 38.905H-202.214V41.5501H-198C-197.431 41.5501 -196.969 42.0111 -196.969 42.5814V52.5102C-196.969 53.0805 -197.431 53.5415 -198 53.5415H-199.822V53.9076C-199.822 54.4768 -200.284 54.9378 -200.854 54.9378ZM-225.845 51.478H-199.031V43.6116H-225.845V51.478ZM-254.719 51.478H-227.907V43.6116H-254.719V51.478ZM-249.473 41.5491H-204.276V38.9039H-223.428C-223.442 38.905 -223.457 38.905 -223.475 38.9039H-230.275C-230.292 38.905 -230.307 38.905 -230.322 38.9039H-249.472V41.5491H-249.473ZM-228.903 36.8414H-224.849L-225.544 34.5851H-228.208L-228.903 36.8414ZM-224.758 32.5226H-209.392V13.1247H-244.358V32.5236H-228.994C-228.977 32.5246 -228.961 32.5246 -228.947 32.5236H-224.805C-224.79 32.5236 -224.773 32.5236 -224.758 32.5226ZM-210.862 48.5801H-214.009C-214.578 48.5801 -215.04 48.1192 -215.04 47.5489C-215.04 46.9786 -214.578 46.5176 -214.009 46.5176H-210.862C-210.293 46.5176 -209.831 46.9786 -209.831 47.5489C-209.831 48.1192 -210.293 48.5801 -210.862 48.5801ZM-239.74 48.5801H-242.887C-243.456 48.5801 -243.918 48.1192 -243.918 47.5489C-243.918 46.9786 -243.456 46.5176 -242.887 46.5176H-239.74C-239.171 46.5176 -238.709 46.9786 -238.709 47.5489C-238.709 48.1192 -239.171 48.5801 -239.74 48.5801ZM-130.624 46.7476C-131.195 46.7476 -131.656 46.2866 -131.656 45.7164V43.6095H-148.85V45.7164C-148.85 46.2866 -149.311 46.7476 -149.881 46.7476C-150.451 46.7476 -150.912 46.2866 -150.912 45.7164V43.6095H-168.093V45.6916C-168.093 46.2619 -168.554 46.7229 -169.124 46.7229C-169.694 46.7229 -170.155 46.2619 -170.155 45.6916V20.2837C-170.155 19.7134 -169.694 19.2524 -169.124 19.2524H-111.376C-110.806 19.2524 -110.345 19.7134 -110.345 20.2837V45.6875C-110.345 46.2578 -110.806 46.7188 -111.376 46.7188C-111.946 46.7188 -112.407 46.2578 -112.407 45.6875V43.6095H-129.593V45.7164C-129.593 46.2866 -130.054 46.7476 -130.624 46.7476ZM-129.593 41.547H-112.407V27.5715H-129.593V41.547ZM-148.85 41.547H-131.656V24.4788H-148.85V41.547ZM-168.093 41.547H-150.912V27.5715H-168.093V41.547ZM-129.593 25.509H-112.407V21.3149H-129.593V25.509ZM-168.093 25.509H-150.912V21.3149H-168.093V25.509ZM-148.85 22.4163H-131.656V21.3149H-148.85V22.4163ZM-128.316 36.6063C-128.887 36.6063 -129.348 36.1453 -129.348 35.5751V33.5435C-129.348 32.9732 -128.887 32.5122 -128.316 32.5122C-127.746 32.5122 -127.285 32.9732 -127.285 33.5435V35.5751C-127.285 36.1453 -127.746 36.6063 -128.316 36.6063ZM-152.188 36.6063C-152.758 36.6063 -153.219 36.1453 -153.219 35.5751V33.5435C-153.219 32.9732 -152.758 32.5122 -152.188 32.5122C-151.617 32.5122 -151.157 32.9732 -151.157 33.5435V35.5751C-151.157 36.1453 -151.617 36.6063 -152.188 36.6063ZM-119.949 24.2138H-122.046C-122.617 24.2138 -123.078 23.7528 -123.078 23.1825C-123.078 22.6122 -122.617 22.1513 -122.046 22.1513H-119.949C-119.379 22.1513 -118.918 22.6122 -118.918 23.1825C-118.918 23.7528 -119.38 24.2138 -119.949 24.2138ZM-158.453 24.2138H-160.546C-161.116 24.2138 -161.577 23.7528 -161.577 23.1825C-161.577 22.6122 -161.116 22.1513 -160.546 22.1513H-158.453C-157.882 22.1513 -157.421 22.6122 -157.421 23.1825C-157.421 23.7528 -157.883 24.2138 -158.453 24.2138ZM-39.6341 62.9052H-67.6212C-68.1914 62.9052 -68.6524 62.4443 -68.6524 61.874V23.3754C-68.6524 23.3733 -68.6524 23.3733 -68.6524 23.3712V4.12605C-68.6524 3.55577 -68.1914 3.0948 -67.6212 3.0948H-39.63C-39.0597 3.0948 -38.5987 3.55577 -38.5987 4.12605C-38.5987 4.157 -38.5997 4.18791 -38.6028 4.21782V23.2877C-38.5997 23.3176 -38.5987 23.3486 -38.5987 23.3795C-38.5987 23.4104 -38.5997 23.4414 -38.6028 23.4713V42.537C-38.5997 42.5669 -38.5987 42.5979 -38.5987 42.6288C-38.5987 42.6597 -38.5997 42.6907 -38.6028 42.7206V61.874C-38.6028 62.4443 -39.0638 62.9052 -39.6341 62.9052ZM-66.5889 60.8427H-40.6643V43.66H-66.5889V60.8427ZM-66.5889 41.5934H-40.6643V24.4107H-66.5889V41.5934ZM-66.5889 22.34H-40.6643V5.1573H-66.5889V22.34ZM-64.679 54.8099C-65.2493 54.8099 -65.7103 54.349 -65.7103 53.7787V50.7282C-65.7103 50.158 -65.2493 49.697 -64.679 49.697C-64.1087 49.697 -63.6478 50.158 -63.6478 50.7282V53.7787C-63.6478 54.349 -64.1087 54.8099 -64.679 54.8099ZM-64.679 35.5565C-65.2493 35.5565 -65.7103 35.0955 -65.7103 34.5252V31.4789C-65.7103 30.9086 -65.2493 30.4477 -64.679 30.4477C-64.1087 30.4477 -63.6478 30.9086 -63.6478 31.4789V34.5252C-63.6478 35.0955 -64.1087 35.5565 -64.679 35.5565ZM-64.679 16.3041C-65.2493 16.3041 -65.7103 15.8431 -65.7103 15.2728V12.2265C-65.7103 11.6562 -65.2493 11.1953 -64.679 11.1953C-64.1087 11.1953 -63.6478 11.6562 -63.6478 12.2265V15.2728C-63.6478 15.8421 -64.1087 16.3041 -64.679 16.3041ZM60.9891 62.9052H33.002C33 62.9052 32.9999 62.9052 32.9979 62.9052H5.0108C4.44052 62.9052 3.97955 62.4443 3.97955 61.874V4.12605C3.97955 3.55577 4.44052 3.0948 5.0108 3.0948H60.9881C61.5583 3.0948 62.0193 3.55577 62.0193 4.12605V23.3712C62.0193 23.3733 62.0193 23.3733 62.0193 23.3754V61.874C62.0204 62.4443 61.5583 62.9052 60.9891 62.9052ZM34.0333 60.8427H59.9579V23.3754C59.9579 23.3733 59.9579 23.3733 59.9579 23.3712V5.1573H34.0333V23.3712C34.0333 23.3733 34.0333 23.3733 34.0333 23.3754V60.8427ZM6.04205 60.8427H31.9666V43.6559H6.04205V60.8427ZM6.04205 41.5934H31.9666V23.3754C31.9666 23.3733 31.9666 23.3733 31.9666 23.3712V5.1573H6.04205V41.5934ZM29.7412 54.8099C29.1709 54.8099 28.7099 54.349 28.7099 53.7787V50.7282C28.7099 50.158 29.1709 49.697 29.7412 49.697C30.3115 49.697 30.7724 50.158 30.7724 50.7282V53.7787C30.7724 54.349 30.3115 54.8099 29.7412 54.8099ZM36.2587 35.5565C35.6884 35.5565 35.2274 35.0955 35.2274 34.5252V31.4789C35.2274 30.9086 35.6884 30.4477 36.2587 30.4477C36.829 30.4477 37.2899 30.9086 37.2899 31.4789V34.5252C37.2899 35.0955 36.829 35.5565 36.2587 35.5565ZM29.7412 35.5565C29.1709 35.5565 28.7099 35.0955 28.7099 34.5252V31.4789C28.7099 30.9086 29.1709 30.4477 29.7412 30.4477C30.3115 30.4477 30.7724 30.9086 30.7724 31.4789V34.5252C30.7724 35.0955 30.3115 35.5565 29.7412 35.5565ZM-372.135 149.53H-400.122C-400.124 149.53 -400.124 149.53 -400.126 149.53H-428.115C-428.684 149.53 -429.146 149.069 -429.146 148.499V90.7511C-429.146 90.1808 -428.684 89.7198 -428.115 89.7198H-372.136C-371.567 89.7198 -371.105 90.1808 -371.105 90.7511V109.996C-371.105 109.998 -371.105 109.998 -371.105 110V148.499C-371.104 149.069 -371.567 149.53 -372.135 149.53ZM-399.091 147.468H-373.166V110C-373.166 109.998 -373.166 109.998 -373.166 109.996V91.7823H-399.091V109.996C-399.091 109.998 -399.091 109.998 -399.091 110V147.468ZM-427.084 147.468H-401.157V110C-401.157 109.998 -401.157 109.998 -401.157 109.996V91.7823H-427.084V147.468ZM-386.131 139.832C-390.964 139.832 -394.897 135.9 -394.897 131.068V108.184C-394.897 103.351 -390.964 99.4187 -386.131 99.4187C-381.296 99.4187 -377.361 103.351 -377.361 108.184L-377.365 131.068C-377.365 135.9 -381.297 139.832 -386.131 139.832ZM-386.131 101.48C-389.827 101.48 -392.834 104.487 -392.834 108.183V131.067C-392.834 134.763 -389.827 137.769 -386.131 137.769C-382.435 137.769 -379.428 134.763 -379.428 131.067L-379.424 108.183C-379.424 104.487 -382.433 101.48 -386.131 101.48ZM-396.865 122.181C-397.435 122.181 -397.896 121.721 -397.896 121.15V118.104C-397.896 117.534 -397.435 117.073 -396.865 117.073C-396.296 117.073 -395.834 117.534 -395.834 118.104V121.15C-395.834 121.721 -396.296 122.181 -396.865 122.181ZM-403.383 122.181C-403.952 122.181 -404.414 121.721 -404.414 121.15V118.104C-404.414 117.534 -403.952 117.073 -403.383 117.073C-402.812 117.073 -402.351 117.534 -402.351 118.104V121.15C-402.351 121.721 -402.812 122.181 -403.383 122.181ZM-196.973 104.507C-196.973 103.937 -197.435 103.476 -198.004 103.476C-198.574 103.476 -199.035 103.937 -199.035 104.507V115.792H-199.106C-199.204 113.526 -201.063 111.711 -203.353 111.711H-208.078C-210.367 111.711 -212.225 113.526 -212.322 115.792H-250.311C-252.011 115.792 -253.56 116.451 -254.716 117.526V112.672C-254.716 112.102 -255.177 111.641 -255.747 111.641C-256.316 111.641 -256.778 112.102 -256.778 112.672L-256.781 133.241C-256.781 133.792 -256.349 134.242 -255.806 134.272V134.743C-255.806 135.313 -255.345 135.774 -254.774 135.774C-254.205 135.774 -253.743 135.313 -253.743 134.743V134.272H-200.01V134.743C-200.01 135.313 -199.548 135.774 -198.979 135.774C-198.408 135.774 -197.947 135.313 -197.947 134.743V134.272C-197.403 134.244 -196.97 133.792 -196.97 133.241L-196.973 104.507ZM-208.078 113.774H-203.353C-202.203 113.774 -201.257 114.658 -201.159 115.779H-210.269C-210.172 114.659 -209.227 113.774 -208.078 113.774ZM-250.312 117.854H-199.035V121.228H-254.597C-254.132 119.295 -252.387 117.854 -250.312 117.854ZM-254.719 132.209V123.291H-199.033L-199.031 132.209H-254.719ZM-110.349 125.944C-110.349 125.373 -110.811 124.912 -111.38 124.912H-134.064V115.383C-134.064 114.813 -134.525 114.352 -135.095 114.352H-145.408C-145.979 114.352 -146.44 114.813 -146.44 115.383V124.912H-151.164C-150.583 123.085 -152.34 115.361 -151.794 113.896C-151.675 113.58 -151.72 113.226 -151.912 112.948C-152.105 112.669 -152.421 112.504 -152.759 112.504H-154.149V108.983H-148.648C-148.347 108.983 -148.063 108.852 -147.867 108.625C-147.671 108.398 -147.583 108.097 -147.628 107.8L-149.575 94.6368C-149.649 94.1315 -150.083 93.7561 -150.595 93.7561H-159.767C-160.279 93.7561 -160.713 94.1305 -160.787 94.6368L-162.73 107.8C-162.774 108.097 -162.687 108.398 -162.491 108.625C-162.296 108.852 -162.01 108.983 -161.71 108.983H-156.213V112.504H-157.603C-157.941 112.504 -158.258 112.669 -158.45 112.948C-158.643 113.226 -158.687 113.58 -158.568 113.896C-158.022 115.362 -159.776 123.085 -159.196 124.912H-169.124C-169.694 124.912 -170.155 125.373 -170.155 125.944V142.958C-170.155 143.508 -169.724 143.958 -169.182 143.987V144.461C-169.182 145.031 -168.721 145.492 -168.15 145.492C-167.58 145.492 -167.119 145.031 -167.119 144.461V143.989H-113.386V144.461C-113.386 145.031 -112.925 145.492 -112.355 145.492C-111.784 145.492 -111.323 145.031 -111.323 144.461V143.988C-111.07 143.975 -110.828 143.869 -110.648 143.687C-110.454 143.493 -110.346 143.231 -110.346 142.958L-110.349 125.944ZM-144.377 116.415H-136.126V124.912H-144.377V116.415ZM-160.515 106.921L-158.876 95.8207H-151.484L-149.843 106.921H-160.515ZM-156.299 114.568H-154.061C-154.263 116.204 -152.585 123.571 -153.412 124.912H-156.947C-157.773 123.572 -156.097 116.205 -156.299 114.568ZM-141.287 141.927H-168.093V126.975H-141.287V141.927ZM-139.225 141.927V126.975H-112.411L-112.407 141.927H-139.225Z" fill="white"/>
</svg>
