<svg width="106" height="131" viewBox="0 0 106 131" fill="none" xmlns="http://www.w3.org/2000/svg">
<path opacity="0.5" d="M0.84 127.264V122.08H1.608C2.2 122.064 2.696 121.736 3.096 121.096C3.512 120.456 3.832 119.384 4.056 117.88C4.296 116.36 4.456 114.304 4.536 111.712L4.656 106.96H15.216V122.08H17.328V127.264H15.408V124H2.76V127.264H0.84ZM4.488 122.08H13.056V108.88H6.648L6.576 111.976C6.528 113.992 6.424 115.68 6.264 117.04C6.104 118.4 5.88 119.488 5.592 120.304C5.304 121.12 4.936 121.712 4.488 122.08ZM19.8441 124V111.472H26.3241C27.0761 111.472 27.7001 111.624 28.1961 111.928C28.6921 112.216 29.0601 112.592 29.3001 113.056C29.5561 113.52 29.6841 114.016 29.6841 114.544C29.6841 115.216 29.5241 115.824 29.2041 116.368C28.8841 116.896 28.4201 117.296 27.8121 117.568C28.5321 117.776 29.1161 118.152 29.5641 118.696C30.0121 119.224 30.2361 119.88 30.2361 120.664C30.2361 121.72 29.8601 122.544 29.1081 123.136C28.3721 123.712 27.4041 124 26.2041 124H19.8441ZM21.8601 116.992H25.7721C26.3321 116.992 26.7881 116.784 27.1401 116.368C27.5081 115.936 27.6921 115.448 27.6921 114.904C27.6921 114.376 27.5161 113.92 27.1641 113.536C26.8281 113.152 26.3881 112.96 25.8441 112.96H21.8601V116.992ZM21.8601 122.512H26.1561C26.7321 122.512 27.2121 122.304 27.5961 121.888C27.9961 121.472 28.1961 120.992 28.1961 120.448C28.1961 119.888 28.0041 119.408 27.6201 119.008C27.2521 118.592 26.7881 118.384 26.2281 118.384H21.8601V122.512ZM38.4668 124.24C37.2188 124.24 36.1148 123.944 35.1548 123.352C34.1948 122.76 33.4428 121.968 32.8988 120.976C32.3548 119.984 32.0828 118.904 32.0828 117.736C32.0828 116.552 32.3548 115.472 32.8988 114.496C33.4428 113.52 34.1948 112.736 35.1548 112.144C36.1308 111.552 37.2428 111.256 38.4908 111.256C39.7548 111.256 40.8508 111.56 41.7788 112.168C42.7228 112.76 43.4508 113.544 43.9628 114.52C44.4908 115.48 44.7548 116.52 44.7548 117.64C44.7548 117.992 44.7388 118.264 44.7068 118.456H34.3148C34.3788 119.272 34.6028 120 34.9868 120.64C35.3868 121.264 35.8988 121.76 36.5228 122.128C37.1468 122.48 37.8188 122.656 38.5388 122.656C39.3068 122.656 40.0268 122.464 40.6988 122.08C41.3868 121.696 41.8588 121.192 42.1148 120.568L43.9388 121.072C43.5388 122 42.8428 122.76 41.8508 123.352C40.8588 123.944 39.7308 124.24 38.4668 124.24ZM34.2428 116.992H42.7868C42.7228 116.176 42.4908 115.456 42.0908 114.832C41.6908 114.208 41.1788 113.72 40.5548 113.368C39.9308 113.016 39.2428 112.84 38.4908 112.84C37.7548 112.84 37.0748 113.016 36.4508 113.368C35.8268 113.72 35.3148 114.208 34.9148 114.832C34.5308 115.456 34.3068 116.176 34.2428 116.992ZM53.8464 124.24C52.8224 124.24 51.9104 123.984 51.1104 123.472C50.3104 122.96 49.6784 122.312 49.2144 121.528V129.112H47.1024V111.472H48.9744V113.824C49.4704 113.056 50.1184 112.44 50.9184 111.976C51.7184 111.496 52.5904 111.256 53.5344 111.256C54.3984 111.256 55.1904 111.432 55.9104 111.784C56.6304 112.136 57.2544 112.616 57.7824 113.224C58.3104 113.832 58.7184 114.528 59.0064 115.312C59.3104 116.08 59.4624 116.888 59.4624 117.736C59.4624 118.92 59.2224 120.008 58.7424 121C58.2784 121.992 57.6224 122.784 56.7744 123.376C55.9264 123.952 54.9504 124.24 53.8464 124.24ZM53.1984 122.416C54.0304 122.416 54.7504 122.192 55.3584 121.744C55.9664 121.296 56.4384 120.712 56.7744 119.992C57.1264 119.272 57.3024 118.52 57.3024 117.736C57.3024 116.888 57.1104 116.112 56.7264 115.408C56.3584 114.704 55.8464 114.144 55.1904 113.728C54.5504 113.296 53.8224 113.08 53.0064 113.08C52.5104 113.08 51.9824 113.208 51.4224 113.464C50.8784 113.72 50.3984 114.064 49.9824 114.496C49.5824 114.912 49.3264 115.376 49.2144 115.888V119.464C49.5664 120.296 50.1024 121 50.8224 121.576C51.5584 122.136 52.3504 122.416 53.1984 122.416ZM62.0316 124V111.496H64.1436V121.168L71.1516 111.472H73.0716V124H70.9596V114.52L64.0476 124H62.0316ZM76.4222 124V111.472H78.6062L83.2622 119.68L87.9422 111.472H90.0782V124H88.0622V114.52L83.9342 121.768H82.5902L78.4382 114.52V124H76.4222ZM92.5013 120.376C92.5013 119.576 92.7253 118.888 93.1733 118.312C93.6373 117.72 94.2693 117.264 95.0693 116.944C95.8693 116.624 96.7973 116.464 97.8533 116.464C98.4133 116.464 99.0053 116.512 99.6293 116.608C100.253 116.688 100.805 116.816 101.285 116.992V116.08C101.285 115.12 100.997 114.368 100.421 113.824C99.8453 113.264 99.0293 112.984 97.9733 112.984C97.2853 112.984 96.6213 113.112 95.9813 113.368C95.3573 113.608 94.6933 113.96 93.9893 114.424L93.2213 112.936C94.0373 112.376 94.8533 111.96 95.6693 111.688C96.4853 111.4 97.3333 111.256 98.2133 111.256C99.8133 111.256 101.077 111.704 102.005 112.6C102.933 113.48 103.397 114.712 103.397 116.296V121.6C103.397 122.096 103.621 122.352 104.069 122.368V124C103.861 124.032 103.677 124.056 103.517 124.072C103.373 124.088 103.253 124.096 103.157 124.096C102.661 124.096 102.285 123.96 102.029 123.688C101.789 123.416 101.653 123.128 101.621 122.824L101.573 122.032C101.029 122.736 100.317 123.28 99.4373 123.664C98.5573 124.048 97.6853 124.24 96.8213 124.24C95.9893 124.24 95.2453 124.072 94.5893 123.736C93.9333 123.384 93.4213 122.92 93.0533 122.344C92.6853 121.752 92.5013 121.096 92.5013 120.376ZM100.661 121.264C100.853 121.04 101.005 120.816 101.117 120.592C101.229 120.352 101.285 120.152 101.285 119.992V118.432C100.261 118.032 99.2053 117.832 98.1172 117.832C97.0453 117.832 96.1733 118.048 95.5013 118.48C94.8453 118.896 94.5173 119.472 94.5173 120.208C94.5173 120.608 94.6213 121 94.8293 121.384C95.0533 121.752 95.3733 122.056 95.7893 122.296C96.2213 122.536 96.7493 122.656 97.3733 122.656C98.0293 122.656 98.6533 122.528 99.2453 122.272C99.8373 122 100.309 121.664 100.661 121.264Z" fill="white"/>
<g filter="url(#filter0_d_221_60)">
<path d="M69.5219 6.60059L50.3969 11.0525V60.9475V65.4631L69.5219 61.0006V6.60059Z" stroke="white" stroke-width="3" stroke-linecap="round" stroke-linejoin="round"/>
<path d="M69.5219 6.60073V6.54761H36.4781V60.9476H50.3969" stroke="white" stroke-width="3" stroke-linecap="round" stroke-linejoin="round"/>
<path d="M57.0375 37.6362V31.8137" stroke="white" stroke-width="3" stroke-linecap="round" stroke-linejoin="round"/>
</g>
<defs>
<filter id="filter0_d_221_60" x="4" y="-3" width="98" height="98" filterUnits="userSpaceOnUse" color-interpolation-filters="sRGB">
<feFlood flood-opacity="0" result="BackgroundImageFix"/>
<feColorMatrix in="SourceAlpha" type="matrix" values="0 0 0 0 0 0 0 0 0 0 0 0 0 0 0 0 0 0 127 0" result="hardAlpha"/>
<feOffset dy="10"/>
<feGaussianBlur stdDeviation="7.5"/>
<feComposite in2="hardAlpha" operator="out"/>
<feColorMatrix type="matrix" values="0 0 0 0 0 0 0 0 0 0 0 0 0 0 0 0 0 0 0.25 0"/>
<feBlend mode="normal" in2="BackgroundImageFix" result="effect1_dropShadow_221_60"/>
<feBlend mode="normal" in="SourceGraphic" in2="effect1_dropShadow_221_60" result="shape"/>
</filter>
</defs>
</svg>
