<svg width="108" height="132" viewBox="0 0 108 132" fill="none" xmlns="http://www.w3.org/2000/svg">
<path opacity="0.5" d="M16.776 124.979V111.971L11.16 121.979H9.84L4.2 111.971V124.979H2.04V107.939H4.32L10.488 119.003L16.68 107.939H18.936V124.979H16.776ZM28.0136 125.219C26.7656 125.219 25.6616 124.923 24.7016 124.331C23.7416 123.739 22.9896 122.947 22.4456 121.955C21.9016 120.963 21.6296 119.883 21.6296 118.715C21.6296 117.531 21.9016 116.451 22.4456 115.475C22.9896 114.499 23.7416 113.715 24.7016 113.123C25.6776 112.531 26.7896 112.235 28.0376 112.235C29.3016 112.235 30.3976 112.539 31.3256 113.147C32.2696 113.739 32.9976 114.523 33.5096 115.499C34.0376 116.459 34.3016 117.499 34.3016 118.619C34.3016 118.971 34.2856 119.243 34.2536 119.435H23.8616C23.9256 120.251 24.1496 120.979 24.5336 121.619C24.9336 122.243 25.4456 122.739 26.0696 123.107C26.6936 123.459 27.3656 123.635 28.0856 123.635C28.8536 123.635 29.5736 123.443 30.2456 123.059C30.9336 122.675 31.4056 122.171 31.6616 121.547L33.4856 122.051C33.0856 122.979 32.3896 123.739 31.3976 124.331C30.4056 124.923 29.2776 125.219 28.0136 125.219ZM23.7896 117.971H32.3336C32.2696 117.155 32.0376 116.435 31.6376 115.811C31.2376 115.187 30.7256 114.699 30.1016 114.347C29.4776 113.995 28.7896 113.819 28.0376 113.819C27.3016 113.819 26.6216 113.995 25.9976 114.347C25.3736 114.699 24.8616 115.187 24.4616 115.811C24.0776 116.435 23.8536 117.155 23.7896 117.971ZM42.5533 125.219C40.4893 125.219 38.9293 124.595 37.8733 123.347C36.8173 122.099 36.2893 120.339 36.2893 118.067C36.2893 116.515 36.4173 115.211 36.6733 114.155C36.9293 113.083 37.3133 112.203 37.8253 111.515C38.3373 110.811 38.9693 110.243 39.7213 109.811C40.4733 109.363 41.3373 108.995 42.3133 108.707L47.6173 107.099L47.7373 108.923L42.5773 110.483C41.6973 110.771 40.9613 111.139 40.3693 111.587C39.7773 112.035 39.3133 112.611 38.9773 113.315C38.6413 114.019 38.4173 114.923 38.3053 116.027C38.7213 115.179 39.3453 114.523 40.1773 114.059C41.0093 113.579 41.9773 113.339 43.0813 113.339C44.2653 113.339 45.2813 113.587 46.1293 114.083C46.9933 114.563 47.6493 115.243 48.0973 116.123C48.5613 116.987 48.7933 117.987 48.7933 119.123C48.7933 120.339 48.5533 121.403 48.0733 122.315C47.5933 123.227 46.8893 123.939 45.9613 124.451C45.0333 124.963 43.8973 125.219 42.5533 125.219ZM42.5533 123.395C43.8493 123.395 44.8493 123.019 45.5533 122.267C46.2733 121.499 46.6333 120.483 46.6333 119.219C46.6333 117.987 46.2813 116.987 45.5773 116.219C44.8733 115.451 43.8653 115.067 42.5533 115.067C41.3853 115.067 40.4093 115.427 39.6253 116.147C38.8573 116.867 38.4733 117.891 38.4733 119.219C38.4733 120.435 38.8253 121.435 39.5293 122.219C40.2333 123.003 41.2413 123.395 42.5533 123.395ZM50.2641 125.075V123.179C50.8081 123.163 51.2881 122.963 51.7041 122.579C52.1201 122.195 52.4481 121.491 52.6881 120.467C52.9441 119.443 53.1041 117.979 53.1681 116.075L53.3121 112.451H61.8321V124.979H59.7201V114.323H55.1841L55.1361 116.267C55.0561 118.539 54.8241 120.315 54.4401 121.595C54.0721 122.875 53.5361 123.771 52.8321 124.283C52.1441 124.795 51.2881 125.059 50.2641 125.075ZM64.3071 124.979L67.8591 119.939C67.0431 119.779 66.3871 119.395 65.8911 118.787C65.3951 118.163 65.1471 117.331 65.1471 116.291C65.1471 115.539 65.3231 114.875 65.6751 114.299C66.0271 113.723 66.5151 113.267 67.1391 112.931C67.7791 112.595 68.5231 112.427 69.3711 112.427H74.5071V124.979H72.3951V120.275H69.9471L66.6351 124.979H64.3071ZM69.5151 118.715H72.3951V114.083H69.7551C69.0031 114.083 68.4031 114.299 67.9551 114.731C67.5071 115.147 67.2831 115.683 67.2831 116.339C67.2831 116.995 67.4671 117.555 67.8351 118.019C68.2191 118.483 68.7791 118.715 69.5151 118.715ZM77.8988 124.979V112.451H80.0828L84.7388 120.659L89.4188 112.451H91.5548V124.979H89.5388V115.499L85.4108 122.747H84.0668L79.9148 115.499V124.979H77.8988ZM94.9378 124.979V112.475H97.0498V122.147L104.058 112.451H105.978V124.979H103.866V115.499L96.9538 124.979H94.9378Z" fill="white"/>
<g clip-path="url(#clip0_221_12)" filter="url(#filter0_d_221_12)">
<path d="M78.7252 -121.892C78.1549 -121.892 77.694 -122.354 77.694 -122.923V-127.922H30.3029V-122.923C30.3029 -122.354 29.8419 -121.892 29.2716 -121.892C28.7013 -121.892 28.2404 -122.354 28.2404 -122.923V-140.842C28.2404 -143.874 30.7061 -146.342 33.7359 -146.342H74.2558C77.2876 -146.342 79.7554 -143.874 79.7554 -140.842V-122.923C79.7564 -122.354 79.2945 -121.892 78.7252 -121.892ZM30.3029 -129.984H77.6929V-140.842C77.6929 -142.738 76.1512 -144.28 74.2558 -144.28H33.7369C31.8436 -144.28 30.3039 -142.738 30.3039 -140.842V-129.984H30.3029ZM82.8739 -146.545H25.126C24.5557 -146.545 24.0947 -147.007 24.0947 -147.577C24.0947 -148.146 24.5557 -148.608 25.126 -148.608H82.8739C83.4442 -148.608 83.9052 -148.146 83.9052 -147.577C83.9052 -147.007 83.4442 -146.545 82.8739 -146.545ZM-351.828 -29.2148C-352.397 -29.2148 -352.859 -29.6768 -352.859 -30.2461V-39.7985H-364.653V-30.2461C-364.653 -29.6768 -365.115 -29.2148 -365.685 -29.2148C-366.254 -29.2148 -366.716 -29.6768 -366.716 -30.2461V-45.3497H-368.63C-369.199 -45.3497 -369.661 -45.8117 -369.661 -46.381C-369.661 -46.9502 -369.199 -47.4122 -368.63 -47.4122H-352.751L-351.281 -60.6391V-67.0039C-351.281 -67.5732 -350.819 -68.0352 -350.25 -68.0352C-349.681 -68.0352 -349.219 -67.5732 -349.219 -67.0039V-60.5968C-349.219 -60.572 -349.219 -60.5473 -349.22 -60.5225C-349.221 -60.4998 -349.223 -60.4761 -349.226 -60.4534L-350.796 -46.3243V-30.2461C-350.797 -29.6758 -351.259 -29.2148 -351.828 -29.2148ZM-364.653 -41.86H-352.859V-45.3497H-364.653V-41.86ZM-379.126 -29.2148C-379.157 -29.2148 -379.188 -29.2158 -379.218 -29.2189H-386.052C-386.621 -29.2189 -387.083 -29.6809 -387.083 -30.2502C-387.083 -30.8194 -386.621 -31.2814 -386.052 -31.2814H-380.157V-54.8238H-396.893C-397.463 -54.8238 -397.925 -55.2858 -397.925 -55.8551C-397.925 -56.4243 -397.463 -56.8863 -396.893 -56.8863H-361.353C-360.784 -56.8863 -360.322 -56.4243 -360.322 -55.8551C-360.322 -55.2858 -360.784 -54.8238 -361.353 -54.8238H-378.095V-31.2814H-372.197C-371.628 -31.2814 -371.166 -30.8194 -371.166 -30.2502C-371.166 -29.6809 -371.628 -29.2189 -372.197 -29.2189H-379.034C-379.064 -29.2158 -379.095 -29.2148 -379.126 -29.2148ZM-392.567 -29.2148C-393.137 -29.2148 -393.599 -29.6768 -393.599 -30.2461V-39.7985H-405.391V-30.2461C-405.391 -29.6768 -405.853 -29.2148 -406.422 -29.2148C-406.991 -29.2148 -407.453 -29.6768 -407.453 -30.2461V-46.3243L-409.023 -60.4534C-409.026 -60.4771 -409.028 -60.5019 -409.029 -60.5266C-409.031 -60.5493 -409.031 -60.5731 -409.031 -60.5968V-67.0039C-409.031 -67.5732 -408.569 -68.0352 -408 -68.0352C-407.431 -68.0352 -406.969 -67.5732 -406.969 -67.0039V-60.6391L-405.499 -47.4122H-389.622C-389.053 -47.4122 -388.591 -46.9502 -388.591 -46.381C-388.591 -45.8117 -389.053 -45.3497 -389.622 -45.3497H-391.536V-30.2461C-391.536 -29.6758 -391.997 -29.2148 -392.567 -29.2148ZM-405.391 -41.86H-393.599V-45.3497H-405.391V-41.86ZM-267.772 -33.9781C-268.341 -33.9781 -268.803 -34.4401 -268.803 -35.0094V-37.8474H-292.501C-293.071 -37.8474 -293.532 -38.3084 -293.532 -38.8786V-58.6302H-316.198V-35.0094C-316.198 -34.4401 -316.66 -33.9781 -317.229 -33.9781C-317.8 -33.9781 -318.261 -34.4401 -318.261 -35.0094V-58.6302H-321.375C-321.944 -58.6302 -322.406 -59.0922 -322.406 -59.6614V-62.2406C-322.406 -62.8098 -321.944 -63.2718 -321.375 -63.2718H-263.625C-263.056 -63.2718 -262.594 -62.8098 -262.594 -62.2406V-59.6614C-262.594 -59.0922 -263.056 -58.6302 -263.625 -58.6302H-266.74V-35.0094C-266.74 -34.4401 -267.201 -33.9781 -267.772 -33.9781ZM-291.47 -39.9099H-268.803V-48.2372H-291.47V-39.9099ZM-291.47 -50.2997H-268.803V-58.6302H-291.47V-50.2997ZM-267.772 -60.6927H-264.656V-61.2093H-320.344V-60.6927H-267.772ZM-278.785 -43.0418H-281.479C-282.049 -43.0418 -282.51 -43.5038 -282.51 -44.0731C-282.51 -44.6433 -282.049 -45.1043 -281.479 -45.1043H-278.785C-278.216 -45.1043 -277.754 -44.6433 -277.754 -44.0731C-277.754 -43.5038 -278.216 -43.0418 -278.785 -43.0418ZM-278.785 -53.4358H-281.479C-282.049 -53.4358 -282.51 -53.8978 -282.51 -54.467C-282.51 -55.0373 -282.049 -55.4983 -281.479 -55.4983H-278.785C-278.216 -55.4983 -277.754 -55.0373 -277.754 -54.467C-277.754 -53.8978 -278.216 -53.4358 -278.785 -53.4358ZM-181.147 -33.9781C-181.716 -33.9781 -182.178 -34.4401 -182.178 -35.0094V-48.2372H-229.573V-35.0094C-229.573 -34.4401 -230.035 -33.9781 -230.604 -33.9781C-231.174 -33.9781 -231.636 -34.4401 -231.636 -35.0094V-58.6302H-234.75C-235.319 -58.6302 -235.781 -59.0922 -235.781 -59.6614V-62.2406C-235.781 -62.8098 -235.319 -63.2718 -234.75 -63.2718H-177C-176.431 -63.2718 -175.969 -62.8098 -175.969 -62.2406V-59.6614C-175.969 -59.0922 -176.431 -58.6302 -177 -58.6302H-180.115V-35.0094C-180.115 -34.4401 -180.576 -33.9781 -181.147 -33.9781ZM-204.845 -50.2997H-182.178V-58.6302H-204.845V-50.2997ZM-229.572 -50.2997H-206.906V-58.6302H-229.572V-50.2997ZM-181.147 -60.6927H-178.031V-61.2093H-233.719V-60.6927H-181.147ZM-192.16 -53.4358H-194.854C-195.423 -53.4358 -195.885 -53.8978 -195.885 -54.467C-195.885 -55.0363 -195.423 -55.4983 -194.854 -55.4983H-192.16C-191.591 -55.4983 -191.129 -55.0363 -191.129 -54.467C-191.129 -53.8978 -191.591 -53.4358 -192.16 -53.4358ZM-216.892 -53.5946H-219.588C-220.157 -53.5946 -220.619 -54.0566 -220.619 -54.6258C-220.619 -55.1951 -220.157 -55.6571 -219.588 -55.6571H-216.892C-216.323 -55.6571 -215.861 -55.1951 -215.861 -54.6258C-215.861 -54.0566 -216.322 -53.5946 -216.892 -53.5946ZM-107.36 -18.7187C-107.93 -18.7187 -108.391 -19.1807 -108.391 -19.75V-22.8654H-130.112V-19.75C-130.112 -19.1807 -130.573 -18.7187 -131.143 -18.7187C-131.714 -18.7187 -132.175 -19.1807 -132.175 -19.75V-39.221H-135.936C-136.506 -39.221 -136.967 -39.683 -136.967 -40.2523C-136.917 -42.2354 -135.349 -43.7637 -133.393 -43.7637H-131.914L-131.906 -66.3367C-131.634 -73.1925 -126.076 -78.5312 -119.252 -78.5312C-112.424 -78.5312 -106.866 -73.1925 -106.598 -66.3769L-106.585 -43.7637H-105.105C-103.181 -43.7637 -101.577 -42.2013 -101.531 -40.2822C-101.531 -40.2739 -101.531 -40.2657 -101.531 -40.2574V-40.2523C-101.531 -39.683 -101.992 -39.221 -102.562 -39.221H-106.326V-19.75C-106.328 -19.1807 -106.789 -18.7187 -107.36 -18.7187ZM-130.112 -24.9279H-108.391V-31.0442H-130.112V-24.9279ZM-130.112 -33.1057H-108.391V-39.221H-130.112V-33.1057ZM-107.36 -41.2835H-104.067C-104.339 -41.5413 -104.706 -41.7012 -105.107 -41.7012H-133.395C-133.795 -41.7012 -134.162 -41.5413 -134.435 -41.2835H-107.36ZM-129.852 -43.7637H-108.648L-108.659 -66.3357C-108.883 -72.0003 -113.536 -76.4687 -119.251 -76.4687C-124.963 -76.4687 -129.617 -72.0003 -129.844 -66.2955L-129.852 -43.7637ZM-117.955 -26.9512H-120.544C-121.115 -26.9512 -121.576 -27.4132 -121.576 -27.9825C-121.576 -28.5517 -121.115 -29.0137 -120.544 -29.0137H-117.955C-117.385 -29.0137 -116.924 -28.5517 -116.924 -27.9825C-116.924 -27.4132 -117.385 -26.9512 -117.955 -26.9512ZM-117.955 -35.1342H-120.544C-121.115 -35.1342 -121.576 -35.5962 -121.576 -36.1654C-121.576 -36.7347 -121.115 -37.1967 -120.544 -37.1967H-117.955C-117.385 -37.1967 -116.924 -36.7347 -116.924 -36.1654C-116.924 -35.5962 -117.385 -35.1342 -117.955 -35.1342ZM-125.097 -53.2367C-125.361 -53.2367 -125.625 -53.3378 -125.826 -53.5389C-126.23 -53.9421 -126.23 -54.5939 -125.826 -54.9971L-114.131 -66.6925C-113.728 -67.0957 -113.076 -67.0957 -112.673 -66.6925C-112.27 -66.2893 -112.27 -65.6375 -112.673 -65.2343L-124.368 -53.5389C-124.569 -53.3368 -124.833 -53.2367 -125.097 -53.2367ZM-120.003 -53.9586C-120.267 -53.9586 -120.531 -54.0597 -120.732 -54.2608C-121.135 -54.664 -121.135 -55.3168 -120.732 -55.72L-114.853 -61.5961C-114.45 -61.9982 -113.798 -61.9982 -113.395 -61.5961C-112.991 -61.1939 -112.991 -60.54 -113.395 -60.1368L-119.274 -54.2608C-119.476 -54.0597 -119.74 -53.9586 -120.003 -53.9586ZM-124.375 -58.3332C-124.639 -58.3332 -124.903 -58.4342 -125.104 -58.6353C-125.508 -59.0375 -125.508 -59.6903 -125.104 -60.0935L-119.23 -65.9696C-118.827 -66.3728 -118.175 -66.3728 -117.772 -65.9696C-117.369 -65.5674 -117.369 -64.9146 -117.772 -64.5114L-123.646 -58.6353C-123.847 -58.4342 -124.111 -58.3332 -124.375 -58.3332ZM-46.8078 -18.7187C-46.9439 -18.7187 -47.0832 -18.7455 -47.2162 -18.8033C-47.739 -19.0302 -47.9783 -19.6376 -47.7534 -20.1594L-47.0089 -21.8785H-48.6476C-49.2178 -21.8785 -49.6788 -22.3405 -49.6788 -22.9097V-44.9517C-49.6788 -45.5529 -49.1385 -46.0252 -48.5558 -45.9788H-39.9098V-58.0991H-48.6476C-48.9497 -58.0991 -49.2354 -58.2311 -49.4324 -58.4611C-49.6273 -58.691 -49.7129 -58.9942 -49.6664 -59.2922L-46.7604 -77.6619C-46.681 -78.1631 -46.2489 -78.5312 -45.7415 -78.5312H-32.0269C-31.5195 -78.5312 -31.0885 -78.1631 -31.0091 -77.6619L-28.0968 -59.2922C-28.0494 -58.9942 -28.135 -58.69 -28.3309 -58.46C-28.5269 -58.2301 -28.8135 -58.0981 -29.1157 -58.0981H-31.4174V-53.1945C-31.4174 -52.6252 -31.8784 -52.1632 -32.4487 -52.1632C-33.019 -52.1632 -33.4799 -52.6252 -33.4799 -53.1945V-58.0981H-37.8483V-45.9778H-16.6943C-16.1106 -46.0242 -15.5713 -45.5519 -15.5713 -44.9506V-22.9087C-15.5713 -22.3395 -16.0323 -21.8775 -16.6025 -21.8775H-18.1989L-17.4533 -20.1594C-17.2254 -19.6366 -17.4667 -19.0291 -17.9885 -18.8033C-18.5124 -18.5775 -19.1198 -18.8167 -19.3446 -19.3396L-20.447 -21.8785H-44.7608L-45.8591 -19.3406C-46.0282 -18.9518 -46.4087 -18.7187 -46.8078 -18.7187ZM-19.7478 -23.941H-17.6338V-32.8974H-47.6163V-23.941H-45.462C-45.4455 -23.942 -45.4311 -23.942 -45.4146 -23.941H-19.7942C-19.7787 -23.942 -19.7623 -23.942 -19.7478 -23.941ZM-47.6163 -34.9599H-17.6338V-43.9173H-47.6163V-34.9599ZM-32.4477 -60.1626H-30.3212L-32.9066 -76.4687H-44.8598L-47.44 -60.1616H-32.4477V-60.1626ZM-30.8812 -27.3833H-34.374C-34.9443 -27.3833 -35.4053 -27.8453 -35.4053 -28.4146C-35.4053 -28.9848 -34.9443 -29.4458 -34.374 -29.4458H-30.8812C-30.3109 -29.4458 -29.8499 -28.9848 -29.8499 -28.4146C-29.8499 -27.8463 -30.3109 -27.3833 -30.8812 -27.3833ZM-30.8812 -38.4115H-34.374C-34.9443 -38.4115 -35.4053 -38.8735 -35.4053 -39.4427C-35.4053 -40.013 -34.9443 -40.474 -34.374 -40.474H-30.8812C-30.3109 -40.474 -29.8499 -40.013 -29.8499 -39.4427C-29.8499 -38.8735 -30.3109 -38.4115 -30.8812 -38.4115ZM81.2559 -36.2397C80.8568 -36.2397 80.4773 -36.4727 80.3092 -36.8615L79.3439 -39.0859H54.002C54 -39.0859 53.9999 -39.0859 53.9979 -39.0859H28.6951L27.734 -36.8615C27.5082 -36.3407 26.9028 -36.0984 26.379 -36.3242C25.8561 -36.5501 25.6158 -37.1575 25.8417 -37.6803L26.4491 -39.0849H25.126C24.5557 -39.0849 24.0947 -39.5469 24.0947 -40.1161V-59.976C24.0947 -60.5679 24.6258 -61.0402 25.1909 -61.0051H53.934C53.9556 -61.0072 53.9803 -61.0134 53.9999 -61.0072C54.0257 -61.0134 54.0443 -61.0072 54.0659 -61.0051H82.809C83.3699 -61.0402 83.9052 -60.5679 83.9052 -59.976V-40.1161C83.9052 -39.5469 83.4442 -39.0849 82.8739 -39.0849H81.5921L82.2005 -37.6814C82.4274 -37.1585 82.1871 -36.5511 81.6642 -36.3253C81.5312 -36.2675 81.392 -36.2397 81.2559 -36.2397ZM80.0431 -41.1474H81.8427V-49.0158H55.0333V-41.1474H79.9977C80.0122 -41.1484 80.0287 -41.1484 80.0431 -41.1474ZM28.0403 -41.1474H52.9666V-49.0158H26.1572V-41.1474H27.9949C28.0083 -41.1484 28.0248 -41.1484 28.0403 -41.1474ZM55.0333 -51.0783H81.8427V-58.9427H55.0333V-51.0783ZM26.1572 -51.0783H52.9666V-58.9427H26.1572V-51.0783ZM70.0111 -44.0493H66.8638C66.2935 -44.0493 65.8325 -44.5113 65.8325 -45.0806C65.8325 -45.6498 66.2935 -46.1118 66.8638 -46.1118H70.0111C70.5814 -46.1118 71.0424 -45.6498 71.0424 -45.0806C71.0424 -44.5113 70.5814 -44.0493 70.0111 -44.0493ZM41.131 -44.0493H37.9846C37.4144 -44.0493 36.9534 -44.5113 36.9534 -45.0806C36.9534 -45.6498 37.4144 -46.1118 37.9846 -46.1118H41.132C41.7023 -46.1118 42.1633 -45.6498 42.1633 -45.0806C42.1633 -44.5113 41.7013 -44.0493 41.131 -44.0493ZM70.0111 -53.9803H66.8638C66.2935 -53.9803 65.8325 -54.4423 65.8325 -55.0115C65.8325 -55.5808 66.2935 -56.0428 66.8638 -56.0428H70.0111C70.5814 -56.0428 71.0424 -55.5808 71.0424 -55.0115C71.0424 -54.4423 70.5814 -53.9803 70.0111 -53.9803ZM41.131 -53.9803H37.9846C37.4144 -53.9803 36.9534 -54.4423 36.9534 -55.0115C36.9534 -55.5808 37.4144 -56.0428 37.9846 -56.0428H41.132C41.7023 -56.0428 42.1633 -55.5808 42.1633 -55.0115C42.1633 -54.4423 41.7013 -53.9803 41.131 -53.9803ZM-406.339 50.3822C-406.476 50.3822 -406.615 50.3554 -406.748 50.2977C-407.271 50.0708 -407.511 49.4634 -407.284 48.9416L-406.677 47.538H-408C-408.569 47.538 -409.031 47.0771 -409.031 46.5068V26.648C-409.031 26.0777 -408.569 25.6168 -408 25.6168H-379.126C-379.123 25.6168 -379.123 25.6168 -379.122 25.6168H-350.25C-349.681 25.6168 -349.219 26.0777 -349.219 26.648V46.5058C-349.219 47.076 -349.681 47.537 -350.25 47.537H-351.532L-350.923 48.9395C-350.697 49.4624 -350.937 50.0698 -351.46 50.2956C-351.98 50.5246 -352.589 50.2832 -352.816 49.7604L-353.781 47.536H-379.122C-379.123 47.535 -379.123 47.535 -379.126 47.536H-404.429L-405.392 49.7594C-405.56 50.1492 -405.94 50.3822 -406.339 50.3822ZM-353.081 45.4745H-351.281V27.6793H-378.091V45.4745H-353.127C-353.112 45.4745 -353.096 45.4745 -353.081 45.4745ZM-405.083 45.4745H-380.157V37.6081H-406.969V45.4745H-405.129C-405.114 45.4745 -405.098 45.4745 -405.083 45.4745ZM-406.969 35.5456H-380.157V27.6793H-406.969V35.5456ZM-391.99 42.5736H-395.137C-395.706 42.5736 -396.168 42.1126 -396.168 41.5424C-396.168 40.9721 -395.706 40.5111 -395.137 40.5111H-391.99C-391.421 40.5111 -390.959 40.9721 -390.959 41.5424C-390.959 42.1126 -391.421 42.5736 -391.99 42.5736ZM-375.912 39.1787C-376.481 39.1787 -376.943 38.7178 -376.943 38.1475V34.9991C-376.943 34.4288 -376.481 33.9678 -375.912 33.9678C-375.342 33.9678 -374.88 34.4288 -374.88 34.9991V38.1475C-374.88 38.7167 -375.342 39.1787 -375.912 39.1787ZM-391.99 32.6396H-395.137C-395.706 32.6396 -396.168 32.1786 -396.168 31.6083C-396.168 31.0381 -395.706 30.5771 -395.137 30.5771H-391.99C-391.421 30.5771 -390.959 31.0381 -390.959 31.6083C-390.959 32.1786 -391.421 32.6396 -391.99 32.6396ZM-266.478 54.6207C-267.048 54.6207 -267.51 54.1597 -267.51 53.5894V53.2285H-292.496C-292.497 53.2285 -292.497 53.2285 -292.5 53.2285H-317.449V53.5894C-317.449 54.1597 -317.911 54.6207 -318.48 54.6207C-319.05 54.6207 -319.512 54.1597 -319.512 53.5894V53.2285H-321.282C-321.873 53.2935 -322.405 52.8026 -322.405 52.2014V22.4106C-322.405 21.8403 -321.943 21.3793 -321.374 21.3793H-263.624C-263.055 21.3793 -262.593 21.8403 -262.593 22.4106C-262.593 22.4415 -262.594 22.4725 -262.597 22.5024V32.2487C-262.595 32.2786 -262.593 32.3096 -262.593 32.3405V52.1983C-262.593 52.7686 -263.055 53.2295 -263.624 53.2295H-265.446V53.5905C-265.447 54.1597 -265.909 54.6207 -266.478 54.6207ZM-291.466 51.167H-264.656V43.2996H-291.466V51.167ZM-320.344 51.167H-293.532V43.2996H-320.344V51.167ZM-291.466 41.2371H-264.656V32.4323C-264.658 32.4024 -264.66 32.3714 -264.66 32.3405V23.4418H-291.466V41.2371ZM-320.344 41.2371H-293.528V23.4418H-320.344V41.2371ZM-276.487 48.2682H-279.634C-280.203 48.2682 -280.665 47.8072 -280.665 47.2369C-280.665 46.6666 -280.203 46.2057 -279.634 46.2057H-276.487C-275.917 46.2057 -275.456 46.6666 -275.456 47.2369C-275.456 47.8072 -275.917 48.2682 -276.487 48.2682ZM-305.365 48.2682H-308.512C-309.081 48.2682 -309.543 47.8072 -309.543 47.2369C-309.543 46.6666 -309.081 46.2057 -308.512 46.2057H-305.365C-304.796 46.2057 -304.334 46.6666 -304.334 47.2369C-304.334 47.8072 -304.796 48.2682 -305.365 48.2682ZM-266.68 34.9403C-267.249 34.9403 -267.711 34.4793 -267.711 33.9091V30.7648C-267.711 30.1945 -267.249 29.7335 -266.68 29.7335C-266.11 29.7335 -265.648 30.1945 -265.648 30.7648V33.9091C-265.648 34.4793 -266.11 34.9403 -266.68 34.9403ZM-318.339 34.9403C-318.908 34.9403 -319.37 34.4793 -319.37 33.9091V30.7648C-319.37 30.1945 -318.908 29.7335 -318.339 29.7335C-317.77 29.7335 -317.308 30.1945 -317.308 30.7648V33.9091C-317.308 34.4793 -317.769 34.9403 -318.339 34.9403ZM-179.854 59.9378C-180.423 59.9378 -180.885 59.4768 -180.885 58.9065V58.5405H-205.871C-205.872 58.5405 -205.872 58.5405 -205.875 58.5405H-230.824V58.9065C-230.824 59.4768 -231.286 59.9378 -231.855 59.9378C-232.425 59.9378 -232.887 59.4768 -232.887 58.9065V58.5405H-234.657C-235.245 58.6075 -235.78 58.1145 -235.78 57.5133V47.5803C-235.78 47.0101 -235.318 46.5491 -234.749 46.5491H-230.534V43.9039H-234.75C-235.319 43.9039 -235.781 43.443 -235.781 42.8727C-235.781 42.3024 -235.319 41.8414 -234.75 41.8414H-210.062L-209.367 39.5851H-224.389C-224.958 39.5851 -225.42 39.1241 -225.42 38.5538V17.0935C-225.42 16.5232 -224.958 16.0622 -224.389 16.0622H-187.361C-186.792 16.0622 -186.33 16.5232 -186.33 17.0935V38.5548C-186.33 39.1251 -186.792 39.5861 -187.361 39.5861H-202.385L-201.69 41.8425H-177C-176.431 41.8425 -175.969 42.3034 -175.969 42.8737C-175.969 43.444 -176.431 43.905 -177 43.905H-181.214V46.5501H-177C-176.431 46.5501 -175.969 47.0111 -175.969 47.5814V57.5102C-175.969 58.0805 -176.431 58.5415 -177 58.5415H-178.822V58.9076C-178.822 59.4768 -179.284 59.9378 -179.854 59.9378ZM-204.845 56.478H-178.031V48.6116H-204.845V56.478ZM-233.719 56.478H-206.907V48.6116H-233.719V56.478ZM-228.473 46.5491H-183.276V43.9039H-202.428C-202.442 43.905 -202.457 43.905 -202.475 43.9039H-209.275C-209.292 43.905 -209.307 43.905 -209.322 43.9039H-228.472V46.5491H-228.473ZM-207.903 41.8414H-203.849L-204.544 39.5851H-207.208L-207.903 41.8414ZM-203.758 37.5226H-188.392V18.1247H-223.358V37.5236H-207.994C-207.977 37.5246 -207.961 37.5246 -207.947 37.5236H-203.805C-203.79 37.5236 -203.773 37.5236 -203.758 37.5226ZM-189.862 53.5801H-193.009C-193.578 53.5801 -194.04 53.1192 -194.04 52.5489C-194.04 51.9786 -193.578 51.5176 -193.009 51.5176H-189.862C-189.293 51.5176 -188.831 51.9786 -188.831 52.5489C-188.831 53.1192 -189.293 53.5801 -189.862 53.5801ZM-218.74 53.5801H-221.887C-222.456 53.5801 -222.918 53.1192 -222.918 52.5489C-222.918 51.9786 -222.456 51.5176 -221.887 51.5176H-218.74C-218.171 51.5176 -217.709 51.9786 -217.709 52.5489C-217.709 53.1192 -218.171 53.5801 -218.74 53.5801ZM-109.624 51.7476C-110.195 51.7476 -110.656 51.2866 -110.656 50.7164V48.6095H-127.85V50.7164C-127.85 51.2866 -128.311 51.7476 -128.881 51.7476C-129.451 51.7476 -129.912 51.2866 -129.912 50.7164V48.6095H-147.093V50.6916C-147.093 51.2619 -147.554 51.7229 -148.124 51.7229C-148.694 51.7229 -149.155 51.2619 -149.155 50.6916V25.2837C-149.155 24.7134 -148.694 24.2524 -148.124 24.2524H-90.3761C-89.8058 24.2524 -89.3448 24.7134 -89.3448 25.2837V50.6875C-89.3448 51.2578 -89.8058 51.7188 -90.3761 51.7188C-90.9464 51.7188 -91.4073 51.2578 -91.4073 50.6875V48.6095H-108.593V50.7164C-108.593 51.2866 -109.054 51.7476 -109.624 51.7476ZM-108.593 46.547H-91.4073V32.5715H-108.593V46.547ZM-127.85 46.547H-110.656V29.4788H-127.85V46.547ZM-147.093 46.547H-129.912V32.5715H-147.093V46.547ZM-108.593 30.509H-91.4073V26.3149H-108.593V30.509ZM-147.093 30.509H-129.912V26.3149H-147.093V30.509ZM-127.85 27.4163H-110.656V26.3149H-127.85V27.4163ZM-107.316 41.6063C-107.887 41.6063 -108.348 41.1453 -108.348 40.5751V38.5435C-108.348 37.9732 -107.887 37.5122 -107.316 37.5122C-106.746 37.5122 -106.285 37.9732 -106.285 38.5435V40.5751C-106.285 41.1453 -106.746 41.6063 -107.316 41.6063ZM-131.188 41.6063C-131.758 41.6063 -132.219 41.1453 -132.219 40.5751V38.5435C-132.219 37.9732 -131.758 37.5122 -131.188 37.5122C-130.617 37.5122 -130.157 37.9732 -130.157 38.5435V40.5751C-130.157 41.1453 -130.617 41.6063 -131.188 41.6063ZM-98.9489 29.2138H-101.046C-101.617 29.2138 -102.078 28.7528 -102.078 28.1825C-102.078 27.6122 -101.617 27.1513 -101.046 27.1513H-98.9489C-98.3786 27.1513 -97.9176 27.6122 -97.9176 28.1825C-97.9176 28.7528 -98.3796 29.2138 -98.9489 29.2138ZM-137.453 29.2138H-139.546C-140.116 29.2138 -140.577 28.7528 -140.577 28.1825C-140.577 27.6122 -140.116 27.1513 -139.546 27.1513H-137.453C-136.882 27.1513 -136.421 27.6122 -136.421 28.1825C-136.421 28.7528 -136.883 29.2138 -137.453 29.2138ZM-18.6341 67.9052H-46.6212C-47.1914 67.9052 -47.6524 67.4443 -47.6524 66.874V28.3754C-47.6524 28.3733 -47.6524 28.3733 -47.6524 28.3712V9.12605C-47.6524 8.55577 -47.1914 8.0948 -46.6212 8.0948H-18.63C-18.0597 8.0948 -17.5987 8.55577 -17.5987 9.12605C-17.5987 9.157 -17.5997 9.18791 -17.6028 9.21782V28.2877C-17.5997 28.3176 -17.5987 28.3486 -17.5987 28.3795C-17.5987 28.4104 -17.5997 28.4414 -17.6028 28.4713V47.537C-17.5997 47.5669 -17.5987 47.5979 -17.5987 47.6288C-17.5987 47.6597 -17.5997 47.6907 -17.6028 47.7206V66.874C-17.6028 67.4443 -18.0638 67.9052 -18.6341 67.9052ZM-45.5889 65.8427H-19.6643V48.66H-45.5889V65.8427ZM-45.5889 46.5934H-19.6643V29.4107H-45.5889V46.5934ZM-45.5889 27.34H-19.6643V10.1573H-45.5889V27.34ZM-43.679 59.8099C-44.2493 59.8099 -44.7103 59.349 -44.7103 58.7787V55.7282C-44.7103 55.158 -44.2493 54.697 -43.679 54.697C-43.1087 54.697 -42.6478 55.158 -42.6478 55.7282V58.7787C-42.6478 59.349 -43.1087 59.8099 -43.679 59.8099ZM-43.679 40.5565C-44.2493 40.5565 -44.7103 40.0955 -44.7103 39.5252V36.4789C-44.7103 35.9086 -44.2493 35.4477 -43.679 35.4477C-43.1087 35.4477 -42.6478 35.9086 -42.6478 36.4789V39.5252C-42.6478 40.0955 -43.1087 40.5565 -43.679 40.5565ZM-43.679 21.3041C-44.2493 21.3041 -44.7103 20.8431 -44.7103 20.2728V17.2265C-44.7103 16.6562 -44.2493 16.1953 -43.679 16.1953C-43.1087 16.1953 -42.6478 16.6562 -42.6478 17.2265V20.2728C-42.6478 20.8421 -43.1087 21.3041 -43.679 21.3041ZM81.9891 67.9052H54.002C54 67.9052 53.9999 67.9052 53.9979 67.9052H26.0108C25.4405 67.9052 24.9796 67.4443 24.9796 66.874V9.12605C24.9796 8.55577 25.4405 8.0948 26.0108 8.0948H81.9881C82.5583 8.0948 83.0193 8.55577 83.0193 9.12605V28.3712C83.0193 28.3733 83.0193 28.3733 83.0193 28.3754V66.874C83.0204 67.4443 82.5583 67.9052 81.9891 67.9052ZM55.0333 65.8427H80.9579V28.3754C80.9579 28.3733 80.9579 28.3733 80.9579 28.3712V10.1573H55.0333V28.3712C55.0333 28.3733 55.0333 28.3733 55.0333 28.3754V65.8427ZM27.0421 65.8427H52.9666V48.6559H27.0421V65.8427ZM27.0421 46.5934H52.9666V28.3754C52.9666 28.3733 52.9666 28.3733 52.9666 28.3712V10.1573H27.0421V46.5934ZM50.7412 59.8099C50.1709 59.8099 49.7099 59.349 49.7099 58.7787V55.7282C49.7099 55.158 50.1709 54.697 50.7412 54.697C51.3115 54.697 51.7724 55.158 51.7724 55.7282V58.7787C51.7724 59.349 51.3115 59.8099 50.7412 59.8099ZM57.2587 40.5565C56.6884 40.5565 56.2274 40.0955 56.2274 39.5252V36.4789C56.2274 35.9086 56.6884 35.4477 57.2587 35.4477C57.829 35.4477 58.2899 35.9086 58.2899 36.4789V39.5252C58.2899 40.0955 57.829 40.5565 57.2587 40.5565ZM50.7412 40.5565C50.1709 40.5565 49.7099 40.0955 49.7099 39.5252V36.4789C49.7099 35.9086 50.1709 35.4477 50.7412 35.4477C51.3115 35.4477 51.7724 35.9086 51.7724 36.4789V39.5252C51.7724 40.0955 51.3115 40.5565 50.7412 40.5565ZM-351.135 154.53H-379.122C-379.124 154.53 -379.124 154.53 -379.126 154.53H-407.115C-407.684 154.53 -408.146 154.069 -408.146 153.499V95.7511C-408.146 95.1808 -407.684 94.7198 -407.115 94.7198H-351.136C-350.567 94.7198 -350.105 95.1808 -350.105 95.7511V114.996C-350.105 114.998 -350.105 114.998 -350.105 115V153.499C-350.104 154.069 -350.567 154.53 -351.135 154.53ZM-378.091 152.468H-352.166V115C-352.166 114.998 -352.166 114.998 -352.166 114.996V96.7823H-378.091V114.996C-378.091 114.998 -378.091 114.998 -378.091 115V152.468ZM-406.084 152.468H-380.157V115C-380.157 114.998 -380.157 114.998 -380.157 114.996V96.7823H-406.084V152.468ZM-365.131 144.832C-369.964 144.832 -373.897 140.9 -373.897 136.068V113.184C-373.897 108.351 -369.964 104.419 -365.131 104.419C-360.296 104.419 -356.361 108.351 -356.361 113.184L-356.365 136.068C-356.365 140.9 -360.297 144.832 -365.131 144.832ZM-365.131 106.48C-368.827 106.48 -371.834 109.487 -371.834 113.183V136.067C-371.834 139.763 -368.827 142.769 -365.131 142.769C-361.435 142.769 -358.428 139.763 -358.428 136.067L-358.424 113.183C-358.424 109.487 -361.433 106.48 -365.131 106.48ZM-375.865 127.181C-376.435 127.181 -376.896 126.721 -376.896 126.15V123.104C-376.896 122.534 -376.435 122.073 -375.865 122.073C-375.296 122.073 -374.834 122.534 -374.834 123.104V126.15C-374.834 126.721 -375.296 127.181 -375.865 127.181ZM-382.383 127.181C-382.952 127.181 -383.414 126.721 -383.414 126.15V123.104C-383.414 122.534 -382.952 122.073 -382.383 122.073C-381.812 122.073 -381.351 122.534 -381.351 123.104V126.15C-381.351 126.721 -381.812 127.181 -382.383 127.181ZM-175.973 109.507C-175.973 108.937 -176.435 108.476 -177.004 108.476C-177.574 108.476 -178.035 108.937 -178.035 109.507V120.792H-178.106C-178.204 118.526 -180.063 116.711 -182.353 116.711H-187.078C-189.367 116.711 -191.225 118.526 -191.322 120.792H-229.311C-231.011 120.792 -232.56 121.451 -233.716 122.526V117.672C-233.716 117.102 -234.177 116.641 -234.747 116.641C-235.316 116.641 -235.778 117.102 -235.778 117.672L-235.781 138.241C-235.781 138.792 -235.349 139.242 -234.806 139.272V139.743C-234.806 140.313 -234.345 140.774 -233.774 140.774C-233.205 140.774 -232.743 140.313 -232.743 139.743V139.272H-179.01V139.743C-179.01 140.313 -178.548 140.774 -177.979 140.774C-177.408 140.774 -176.947 140.313 -176.947 139.743V139.272C-176.403 139.244 -175.97 138.792 -175.97 138.241L-175.973 109.507ZM-187.078 118.774H-182.353C-181.203 118.774 -180.257 119.658 -180.159 120.779H-189.269C-189.172 119.659 -188.227 118.774 -187.078 118.774ZM-229.312 122.854H-178.035V126.228H-233.597C-233.132 124.295 -231.387 122.854 -229.312 122.854ZM-233.719 137.209V128.291H-178.033L-178.031 137.209H-233.719ZM-89.3489 130.944C-89.3489 130.373 -89.8109 129.912 -90.3802 129.912H-113.064V120.383C-113.064 119.813 -113.525 119.352 -114.095 119.352H-124.408C-124.979 119.352 -125.44 119.813 -125.44 120.383V129.912H-130.164C-129.583 128.085 -131.34 120.361 -130.794 118.896C-130.675 118.58 -130.72 118.226 -130.912 117.948C-131.105 117.669 -131.421 117.504 -131.759 117.504H-133.149V113.983H-127.648C-127.347 113.983 -127.063 113.852 -126.867 113.625C-126.671 113.398 -126.583 113.097 -126.628 112.8L-128.575 99.6368C-128.649 99.1315 -129.083 98.7561 -129.595 98.7561H-138.767C-139.279 98.7561 -139.713 99.1305 -139.787 99.6368L-141.73 112.8C-141.774 113.097 -141.687 113.398 -141.491 113.625C-141.296 113.852 -141.01 113.983 -140.71 113.983H-135.213V117.504H-136.603C-136.941 117.504 -137.258 117.669 -137.45 117.948C-137.643 118.226 -137.687 118.58 -137.568 118.896C-137.022 120.362 -138.776 128.085 -138.196 129.912H-148.124C-148.694 129.912 -149.155 130.373 -149.155 130.944V147.958C-149.155 148.508 -148.724 148.958 -148.182 148.987V149.461C-148.182 150.031 -147.721 150.492 -147.15 150.492C-146.58 150.492 -146.119 150.031 -146.119 149.461V148.989H-92.386V149.461C-92.386 150.031 -91.925 150.492 -91.3547 150.492C-90.7845 150.492 -90.3235 150.031 -90.3235 149.461V148.988C-90.0698 148.975 -89.8285 148.869 -89.648 148.687C-89.4541 148.493 -89.3459 148.231 -89.3459 147.958L-89.3489 130.944ZM-123.377 121.415H-115.126V129.912H-123.377V121.415ZM-139.515 111.921L-137.876 100.821H-130.484L-128.843 111.921H-139.515ZM-135.299 119.568H-133.061C-133.263 121.204 -131.585 128.571 -132.412 129.912H-135.947C-136.773 128.572 -135.097 121.205 -135.299 119.568ZM-120.287 146.927H-147.093V131.975H-120.287V146.927ZM-118.225 146.927V131.975H-91.4114L-91.4073 146.927H-118.225Z" fill="white"/>
</g>
<defs>
<filter id="filter0_d_221_12" x="6" y="0" width="96" height="96" filterUnits="userSpaceOnUse" color-interpolation-filters="sRGB">
<feFlood flood-opacity="0" result="BackgroundImageFix"/>
<feColorMatrix in="SourceAlpha" type="matrix" values="0 0 0 0 0 0 0 0 0 0 0 0 0 0 0 0 0 0 127 0" result="hardAlpha"/>
<feOffset dy="10"/>
<feGaussianBlur stdDeviation="7.5"/>
<feComposite in2="hardAlpha" operator="out"/>
<feColorMatrix type="matrix" values="0 0 0 0 0 0 0 0 0 0 0 0 0 0 0 0 0 0 0.25 0"/>
<feBlend mode="normal" in2="BackgroundImageFix" result="effect1_dropShadow_221_12"/>
<feBlend mode="normal" in="SourceGraphic" in2="effect1_dropShadow_221_12" result="shape"/>
</filter>
<clipPath id="clip0_221_12">
<rect width="66" height="66" fill="white" transform="translate(21 5)"/>
</clipPath>
</defs>
</svg>
