<svg width="241" height="129" viewBox="0 0 241 129" fill="none" xmlns="http://www.w3.org/2000/svg">
<path opacity="0.5" d="M2.04 122V104.96H15.192V122H13.032V106.88H4.2V122H2.04ZM24.4026 122.24C23.1546 122.24 22.0506 121.944 21.0906 121.352C20.1466 120.744 19.4106 119.952 18.8826 118.976C18.3546 117.984 18.0906 116.912 18.0906 115.76C18.0906 114.592 18.3546 113.52 18.8826 112.544C19.4266 111.552 20.1706 110.76 21.1146 110.168C22.0746 109.56 23.1706 109.256 24.4026 109.256C25.6506 109.256 26.7466 109.56 27.6906 110.168C28.6506 110.76 29.3946 111.552 29.9226 112.544C30.4666 113.52 30.7386 114.592 30.7386 115.76C30.7386 116.912 30.4666 117.984 29.9226 118.976C29.3946 119.952 28.6586 120.744 27.7146 121.352C26.7706 121.944 25.6666 122.24 24.4026 122.24ZM20.2506 115.784C20.2506 116.648 20.4346 117.432 20.8026 118.136C21.1866 118.84 21.6906 119.4 22.3146 119.816C22.9386 120.216 23.6346 120.416 24.4026 120.416C25.1706 120.416 25.8666 120.208 26.4906 119.792C27.1306 119.376 27.6346 118.816 28.0026 118.112C28.3866 117.392 28.5786 116.6 28.5786 115.736C28.5786 114.872 28.3866 114.088 28.0026 113.384C27.6346 112.68 27.1306 112.12 26.4906 111.704C25.8666 111.288 25.1706 111.08 24.4026 111.08C23.6346 111.08 22.9386 111.296 22.3146 111.728C21.6906 112.144 21.1866 112.704 20.8026 113.408C20.4346 114.112 20.2506 114.904 20.2506 115.784ZM39.2018 122.24C37.1378 122.24 35.5778 121.616 34.5218 120.368C33.4658 119.12 32.9378 117.36 32.9378 115.088C32.9378 113.536 33.0658 112.232 33.3218 111.176C33.5778 110.104 33.9618 109.224 34.4738 108.536C34.9858 107.832 35.6178 107.264 36.3698 106.832C37.1218 106.384 37.9858 106.016 38.9618 105.728L44.2657 104.12L44.3858 105.944L39.2258 107.504C38.3458 107.792 37.6098 108.16 37.0178 108.608C36.4258 109.056 35.9618 109.632 35.6258 110.336C35.2898 111.04 35.0658 111.944 34.9538 113.048C35.3698 112.2 35.9938 111.544 36.8258 111.08C37.6578 110.6 38.6258 110.36 39.7298 110.36C40.9138 110.36 41.9298 110.608 42.7778 111.104C43.6418 111.584 44.2978 112.264 44.7458 113.144C45.2098 114.008 45.4418 115.008 45.4418 116.144C45.4418 117.36 45.2018 118.424 44.7218 119.336C44.2418 120.248 43.5378 120.96 42.6098 121.472C41.6818 121.984 40.5458 122.24 39.2018 122.24ZM39.2018 120.416C40.4978 120.416 41.4978 120.04 42.2018 119.288C42.9218 118.52 43.2818 117.504 43.2818 116.24C43.2818 115.008 42.9298 114.008 42.2258 113.24C41.5218 112.472 40.5138 112.088 39.2018 112.088C38.0338 112.088 37.0578 112.448 36.2738 113.168C35.5058 113.888 35.1217 114.912 35.1217 116.24C35.1217 117.456 35.4738 118.456 36.1778 119.24C36.8818 120.024 37.8898 120.416 39.2018 120.416ZM49.1312 127.256C48.6032 127.256 48.0432 127.096 47.4512 126.776L48.1712 125.336C48.4432 125.496 48.7152 125.576 48.9872 125.576C49.7712 125.576 50.4592 124.848 51.0512 123.392L51.6512 121.88L46.1552 109.472H48.3872L52.6112 119.864L56.4272 109.472H58.5152L52.6592 124.04C52.2272 125.112 51.7072 125.912 51.0992 126.44C50.4912 126.984 49.8352 127.256 49.1312 127.256ZM63.6973 122V111.344H59.3773V109.472H70.1293V111.344H65.8093V122H63.6973ZM77.7229 122.24C76.4749 122.24 75.3709 121.944 74.4109 121.352C73.4669 120.744 72.7309 119.952 72.2029 118.976C71.6749 117.984 71.4109 116.912 71.4109 115.76C71.4109 114.592 71.6749 113.52 72.2029 112.544C72.7469 111.552 73.4909 110.76 74.4349 110.168C75.3949 109.56 76.4909 109.256 77.7229 109.256C78.9709 109.256 80.0669 109.56 81.0109 110.168C81.9709 110.76 82.7149 111.552 83.2429 112.544C83.7869 113.52 84.0589 114.592 84.0589 115.76C84.0589 116.912 83.7869 117.984 83.2429 118.976C82.7149 119.952 81.9789 120.744 81.0349 121.352C80.0909 121.944 78.9869 122.24 77.7229 122.24ZM73.5709 115.784C73.5709 116.648 73.7549 117.432 74.1229 118.136C74.5069 118.84 75.0109 119.4 75.6349 119.816C76.2589 120.216 76.9549 120.416 77.7229 120.416C78.4909 120.416 79.1869 120.208 79.8109 119.792C80.4509 119.376 80.9549 118.816 81.3229 118.112C81.7069 117.392 81.8989 116.6 81.8989 115.736C81.8989 114.872 81.7069 114.088 81.3229 113.384C80.9549 112.68 80.4509 112.12 79.8109 111.704C79.1869 111.288 78.4909 111.08 77.7229 111.08C76.9549 111.08 76.2589 111.296 75.6349 111.728C75.0109 112.144 74.5069 112.704 74.1229 113.408C73.7549 114.112 73.5709 114.904 73.5709 115.784ZM86.5941 122V109.472H93.0741C93.8261 109.472 94.4501 109.624 94.9461 109.928C95.4421 110.216 95.8101 110.592 96.0501 111.056C96.3061 111.52 96.4341 112.016 96.4341 112.544C96.4341 113.216 96.2741 113.824 95.9541 114.368C95.6341 114.896 95.1701 115.296 94.5621 115.568C95.2821 115.776 95.8661 116.152 96.3141 116.696C96.7621 117.224 96.9861 117.88 96.9861 118.664C96.9861 119.72 96.6101 120.544 95.8581 121.136C95.1221 121.712 94.1541 122 92.9541 122H86.5941ZM88.6101 114.992H92.5221C93.0821 114.992 93.5381 114.784 93.8901 114.368C94.2581 113.936 94.4421 113.448 94.4421 112.904C94.4421 112.376 94.2661 111.92 93.9141 111.536C93.5781 111.152 93.1381 110.96 92.5941 110.96H88.6101V114.992ZM88.6101 120.512H92.9061C93.4821 120.512 93.9621 120.304 94.3461 119.888C94.7461 119.472 94.9461 118.992 94.9461 118.448C94.9461 117.888 94.7541 117.408 94.3701 117.008C94.0021 116.592 93.5381 116.384 92.9781 116.384H88.6101V120.512ZM105.145 122.24C103.897 122.24 102.793 121.944 101.833 121.352C100.889 120.744 100.153 119.952 99.6248 118.976C99.0968 117.984 98.8328 116.912 98.8328 115.76C98.8328 114.592 99.0968 113.52 99.6248 112.544C100.169 111.552 100.913 110.76 101.857 110.168C102.817 109.56 103.913 109.256 105.145 109.256C106.393 109.256 107.489 109.56 108.433 110.168C109.393 110.76 110.137 111.552 110.665 112.544C111.209 113.52 111.481 114.592 111.481 115.76C111.481 116.912 111.209 117.984 110.665 118.976C110.137 119.952 109.401 120.744 108.457 121.352C107.513 121.944 106.409 122.24 105.145 122.24ZM100.993 115.784C100.993 116.648 101.177 117.432 101.545 118.136C101.929 118.84 102.433 119.4 103.057 119.816C103.681 120.216 104.377 120.416 105.145 120.416C105.913 120.416 106.609 120.208 107.233 119.792C107.873 119.376 108.377 118.816 108.745 118.112C109.129 117.392 109.321 116.6 109.321 115.736C109.321 114.872 109.129 114.088 108.745 113.384C108.377 112.68 107.873 112.12 107.233 111.704C106.609 111.288 105.913 111.08 105.145 111.08C104.377 111.08 103.681 111.296 103.057 111.728C102.433 112.144 101.929 112.704 101.545 113.408C101.177 114.112 100.993 114.904 100.993 115.784ZM124.384 122.24C123.28 122.24 122.304 122 121.456 121.52C120.608 121.04 119.928 120.384 119.416 119.552C118.904 118.704 118.592 117.744 118.48 116.672H116.152V122H114.04V109.472H116.152V114.824H118.48C118.608 113.72 118.928 112.752 119.44 111.92C119.968 111.072 120.656 110.416 121.504 109.952C122.352 109.488 123.312 109.256 124.384 109.256C125.648 109.256 126.736 109.552 127.648 110.144C128.56 110.72 129.264 111.496 129.76 112.472C130.256 113.448 130.504 114.544 130.504 115.76C130.504 117.008 130.248 118.12 129.736 119.096C129.24 120.072 128.528 120.84 127.6 121.4C126.688 121.96 125.616 122.24 124.384 122.24ZM124.384 120.416C125.168 120.416 125.856 120.216 126.448 119.816C127.04 119.416 127.504 118.872 127.84 118.184C128.176 117.48 128.344 116.672 128.344 115.76C128.344 114.8 128.168 113.976 127.816 113.288C127.48 112.584 127.008 112.04 126.4 111.656C125.808 111.272 125.136 111.08 124.384 111.08C123.632 111.08 122.96 111.28 122.368 111.68C121.792 112.064 121.344 112.608 121.024 113.312C120.704 114.016 120.544 114.832 120.544 115.76C120.544 117.184 120.904 118.32 121.624 119.168C122.344 120 123.264 120.416 124.384 120.416ZM142.19 122V111.344H137.87V109.472H148.622V111.344H144.302V122H142.19ZM156.287 122.24C155.039 122.24 153.935 121.944 152.975 121.352C152.015 120.76 151.263 119.968 150.719 118.976C150.175 117.984 149.903 116.904 149.903 115.736C149.903 114.552 150.175 113.472 150.719 112.496C151.263 111.52 152.015 110.736 152.975 110.144C153.951 109.552 155.063 109.256 156.311 109.256C157.575 109.256 158.671 109.56 159.599 110.168C160.543 110.76 161.271 111.544 161.783 112.52C162.311 113.48 162.575 114.52 162.575 115.64C162.575 115.992 162.559 116.264 162.527 116.456H152.135C152.199 117.272 152.423 118 152.807 118.64C153.207 119.264 153.719 119.76 154.343 120.128C154.967 120.48 155.639 120.656 156.359 120.656C157.127 120.656 157.847 120.464 158.519 120.08C159.207 119.696 159.679 119.192 159.935 118.568L161.759 119.072C161.359 120 160.663 120.76 159.671 121.352C158.679 121.944 157.551 122.24 156.287 122.24ZM152.063 114.992H160.607C160.543 114.176 160.311 113.456 159.911 112.832C159.511 112.208 158.999 111.72 158.375 111.368C157.751 111.016 157.063 110.84 156.311 110.84C155.575 110.84 154.895 111.016 154.271 111.368C153.647 111.72 153.135 112.208 152.735 112.832C152.351 113.456 152.127 114.176 152.063 114.992ZM165.859 109.472L169.171 114.08L169.363 114.464L169.579 114.08L172.867 109.472H175.219L170.587 115.76L175.243 122H172.891L169.579 117.416L169.363 117.056L169.171 117.416L165.859 122H163.507L168.163 115.76L163.531 109.472H165.859ZM177.203 122V109.472H179.315V114.656H185.843V109.472H187.955V122H185.843V116.528H179.315V122H177.203ZM191.36 107.12V104.48H193.472V107.12H191.36ZM191.36 122V109.472H193.472V122H191.36ZM196.868 122V109.472H198.98V114.632H200.372L204.308 109.472H206.708L202.028 115.544L207.26 122H204.812L200.372 116.576H198.98V122H196.868ZM214.153 122.24C212.905 122.24 211.801 121.944 210.841 121.352C209.897 120.744 209.161 119.952 208.633 118.976C208.105 117.984 207.841 116.912 207.841 115.76C207.841 114.592 208.105 113.52 208.633 112.544C209.177 111.552 209.921 110.76 210.865 110.168C211.825 109.56 212.921 109.256 214.153 109.256C215.401 109.256 216.497 109.56 217.441 110.168C218.401 110.76 219.145 111.552 219.673 112.544C220.217 113.52 220.489 114.592 220.489 115.76C220.489 116.912 220.217 117.984 219.673 118.976C219.145 119.952 218.409 120.744 217.465 121.352C216.521 121.944 215.417 122.24 214.153 122.24ZM210.001 115.784C210.001 116.648 210.185 117.432 210.553 118.136C210.937 118.84 211.441 119.4 212.065 119.816C212.689 120.216 213.385 120.416 214.153 120.416C214.921 120.416 215.617 120.208 216.241 119.792C216.881 119.376 217.385 118.816 217.753 118.112C218.137 117.392 218.329 116.6 218.329 115.736C218.329 114.872 218.137 114.088 217.753 113.384C217.385 112.68 216.881 112.12 216.241 111.704C215.617 111.288 214.921 111.08 214.153 111.08C213.385 111.08 212.689 111.296 212.065 111.728C211.441 112.144 210.937 112.704 210.553 113.408C210.185 114.112 210.001 114.904 210.001 115.784ZM233.392 122.24C232.288 122.24 231.312 122 230.464 121.52C229.616 121.04 228.936 120.384 228.424 119.552C227.912 118.704 227.6 117.744 227.488 116.672H225.16V122H223.048V109.472H225.16V114.824H227.488C227.616 113.72 227.936 112.752 228.448 111.92C228.976 111.072 229.664 110.416 230.512 109.952C231.36 109.488 232.32 109.256 233.392 109.256C234.656 109.256 235.744 109.552 236.656 110.144C237.568 110.72 238.272 111.496 238.768 112.472C239.264 113.448 239.512 114.544 239.512 115.76C239.512 117.008 239.256 118.12 238.744 119.096C238.248 120.072 237.536 120.84 236.608 121.4C235.696 121.96 234.624 122.24 233.392 122.24ZM233.392 120.416C234.176 120.416 234.864 120.216 235.456 119.816C236.048 119.416 236.512 118.872 236.848 118.184C237.184 117.48 237.352 116.672 237.352 115.76C237.352 114.8 237.176 113.976 236.824 113.288C236.488 112.584 236.016 112.04 235.408 111.656C234.816 111.272 234.144 111.08 233.392 111.08C232.64 111.08 231.968 111.28 231.376 111.68C230.8 112.064 230.352 112.608 230.032 113.312C229.712 114.016 229.552 114.832 229.552 115.76C229.552 117.184 229.912 118.32 230.632 119.168C231.352 120 232.272 120.416 233.392 120.416Z" fill="white"/>
<g filter="url(#filter0_d_221_55)">
<path d="M146.674 5H94.3264C92.3862 5 90.8073 6.57795 90.8073 8.51816V60.8672C90.8073 62.8074 92.3862 64.3834 94.3254 64.3834H96.0294V67.0461C96.0294 67.5728 96.4566 68 96.9842 68H105.295C105.823 68 106.25 67.5728 106.25 67.0461V64.3834H134.748V67.0461C134.748 67.5728 135.175 68 135.703 68H144.014C144.54 68 144.968 67.5728 144.968 67.0461V64.3834H146.673C148.613 64.3834 150.191 62.8064 150.191 60.8672V8.51816C150.193 6.57795 148.615 5 146.674 5ZM94.3264 6.90772H146.674C147.56 6.90772 148.284 7.63025 148.284 8.51816V18.0558H92.7169V8.51816C92.7169 7.63123 93.4385 6.90772 94.3264 6.90772ZM104.341 66.0913H97.94V64.3844H104.342V66.0913H104.341ZM143.06 66.0913H136.657V64.3844H143.06V66.0913ZM146.674 62.4747H94.3264C93.4395 62.4747 92.7169 61.7541 92.7169 60.8672V19.9655H148.284V60.8672C148.284 61.7532 147.56 62.4747 146.674 62.4747Z" fill="white"/>
<path d="M135.704 16.3223C137.82 16.3223 139.543 14.5996 139.543 12.4832C139.543 10.3668 137.82 8.64417 135.704 8.64417C133.586 8.64417 131.864 10.3668 131.864 12.4832C131.864 14.5996 133.586 16.3223 135.704 16.3223ZM135.704 10.5529C136.767 10.5529 137.634 11.4191 137.634 12.4832C137.634 13.5473 136.767 14.4136 135.704 14.4136C134.639 14.4136 133.773 13.5473 133.773 12.4832C133.773 11.4191 134.64 10.5529 135.704 10.5529ZM120.5 16.3223C122.616 16.3223 124.338 14.5996 124.338 12.4832C124.338 10.3668 122.616 8.64417 120.5 8.64417C118.384 8.64417 116.661 10.3668 116.661 12.4832C116.661 14.5996 118.384 16.3223 120.5 16.3223ZM120.5 10.5529C121.563 10.5529 122.429 11.4191 122.429 12.4832C122.429 13.5473 121.564 14.4136 120.5 14.4136C119.436 14.4136 118.57 13.5473 118.57 12.4832C118.57 11.4191 119.436 10.5529 120.5 10.5529ZM105.296 16.3223C107.414 16.3223 109.134 14.5996 109.134 12.4832C109.134 10.3668 107.414 8.64417 105.296 8.64417C103.18 8.64417 101.457 10.3668 101.457 12.4832C101.457 14.5996 103.18 16.3223 105.296 16.3223ZM105.296 10.5529C106.36 10.5529 107.227 11.4191 107.227 12.4832C107.227 13.5473 106.36 14.4136 105.296 14.4136C104.232 14.4136 103.366 13.5473 103.366 12.4832C103.366 11.4191 104.232 10.5529 105.296 10.5529ZM141.353 32.026H99.6499C99.1223 32.026 98.6951 32.4542 98.6951 32.9809V56.218C98.6951 56.7456 99.1223 57.1729 99.6499 57.1729H141.353C141.882 57.1729 142.309 56.7456 142.309 56.218V32.9809C142.308 32.4542 141.882 32.026 141.353 32.026ZM140.399 55.2642H100.605V33.9357H140.399V55.2642Z" fill="white"/>
</g>
<defs>
<filter id="filter0_d_221_55" x="74" y="0" width="93" height="93" filterUnits="userSpaceOnUse" color-interpolation-filters="sRGB">
<feFlood flood-opacity="0" result="BackgroundImageFix"/>
<feColorMatrix in="SourceAlpha" type="matrix" values="0 0 0 0 0 0 0 0 0 0 0 0 0 0 0 0 0 0 127 0" result="hardAlpha"/>
<feOffset dy="10"/>
<feGaussianBlur stdDeviation="7.5"/>
<feComposite in2="hardAlpha" operator="out"/>
<feColorMatrix type="matrix" values="0 0 0 0 0 0 0 0 0 0 0 0 0 0 0 0 0 0 0.25 0"/>
<feBlend mode="normal" in2="BackgroundImageFix" result="effect1_dropShadow_221_55"/>
<feBlend mode="normal" in="SourceGraphic" in2="effect1_dropShadow_221_55" result="shape"/>
</filter>
</defs>
</svg>
