<svg width="183" height="132" viewBox="0 0 183 132" fill="none" xmlns="http://www.w3.org/2000/svg">
<path opacity="0.5" d="M2.04 125V107.96H15.192V125H13.032V109.88H4.2V125H2.04ZM25.6746 125.24C24.6506 125.24 23.7386 124.984 22.9386 124.472C22.1386 123.96 21.5066 123.312 21.0426 122.528V130.112H18.9306V112.472H20.8026V114.824C21.2986 114.056 21.9466 113.44 22.7466 112.976C23.5466 112.496 24.4186 112.256 25.3626 112.256C26.2266 112.256 27.0186 112.432 27.7386 112.784C28.4586 113.136 29.0826 113.616 29.6106 114.224C30.1386 114.832 30.5466 115.528 30.8346 116.312C31.1386 117.08 31.2906 117.888 31.2906 118.736C31.2906 119.92 31.0506 121.008 30.5706 122C30.1066 122.992 29.4506 123.784 28.6026 124.376C27.7546 124.952 26.7786 125.24 25.6746 125.24ZM25.0266 123.416C25.8586 123.416 26.5786 123.192 27.1866 122.744C27.7946 122.296 28.2666 121.712 28.6026 120.992C28.9546 120.272 29.1306 119.52 29.1306 118.736C29.1306 117.888 28.9386 117.112 28.5546 116.408C28.1866 115.704 27.6746 115.144 27.0186 114.728C26.3786 114.296 25.6506 114.08 24.8346 114.08C24.3386 114.08 23.8106 114.208 23.2506 114.464C22.7066 114.72 22.2266 115.064 21.8106 115.496C21.4106 115.912 21.1546 116.376 21.0426 116.888V120.464C21.3946 121.296 21.9306 122 22.6506 122.576C23.3866 123.136 24.1786 123.416 25.0266 123.416ZM39.3557 125.24C38.1077 125.24 37.0037 124.944 36.0437 124.352C35.0997 123.744 34.3637 122.952 33.8357 121.976C33.3077 120.984 33.0437 119.912 33.0437 118.76C33.0437 117.592 33.3077 116.52 33.8357 115.544C34.3797 114.552 35.1237 113.76 36.0677 113.168C37.0277 112.56 38.1237 112.256 39.3557 112.256C40.6037 112.256 41.6997 112.56 42.6437 113.168C43.6037 113.76 44.3477 114.552 44.8757 115.544C45.4197 116.52 45.6917 117.592 45.6917 118.76C45.6917 119.912 45.4197 120.984 44.8757 121.976C44.3477 122.952 43.6117 123.744 42.6677 124.352C41.7237 124.944 40.6197 125.24 39.3557 125.24ZM35.2037 118.784C35.2037 119.648 35.3877 120.432 35.7557 121.136C36.1397 121.84 36.6437 122.4 37.2677 122.816C37.8917 123.216 38.5877 123.416 39.3557 123.416C40.1237 123.416 40.8197 123.208 41.4437 122.792C42.0837 122.376 42.5877 121.816 42.9557 121.112C43.3397 120.392 43.5317 119.6 43.5317 118.736C43.5317 117.872 43.3397 117.088 42.9557 116.384C42.5877 115.68 42.0837 115.12 41.4437 114.704C40.8197 114.288 40.1237 114.08 39.3557 114.08C38.5877 114.08 37.8917 114.296 37.2677 114.728C36.6437 115.144 36.1397 115.704 35.7557 116.408C35.3877 117.112 35.2037 117.904 35.2037 118.784ZM53.7949 125.24C52.5469 125.24 51.4429 124.944 50.4829 124.352C49.5229 123.76 48.7709 122.968 48.2269 121.976C47.6829 120.984 47.4109 119.904 47.4109 118.736C47.4109 117.552 47.6829 116.472 48.2269 115.496C48.7709 114.52 49.5229 113.736 50.4829 113.144C51.4589 112.552 52.5709 112.256 53.8189 112.256C55.0829 112.256 56.1789 112.56 57.1069 113.168C58.0509 113.76 58.7789 114.544 59.2909 115.52C59.8189 116.48 60.0829 117.52 60.0829 118.64C60.0829 118.992 60.0669 119.264 60.0349 119.456H49.6429C49.7069 120.272 49.9309 121 50.3149 121.64C50.7149 122.264 51.2269 122.76 51.8509 123.128C52.4749 123.48 53.1469 123.656 53.8669 123.656C54.6349 123.656 55.3549 123.464 56.0269 123.08C56.7149 122.696 57.1869 122.192 57.4429 121.568L59.2669 122.072C58.8669 123 58.1709 123.76 57.1789 124.352C56.1869 124.944 55.0589 125.24 53.7949 125.24ZM49.5709 117.992H58.1149C58.0509 117.176 57.8189 116.456 57.4189 115.832C57.0189 115.208 56.5069 114.72 55.8829 114.368C55.2589 114.016 54.5709 113.84 53.8189 113.84C53.0829 113.84 52.4029 114.016 51.7789 114.368C51.1549 114.72 50.6429 115.208 50.2429 115.832C49.8589 116.456 49.6349 117.176 49.5709 117.992ZM62.4066 125V112.472H64.5186V117.632H65.9106L69.8466 112.472H72.2466L67.5666 118.544L72.7986 125H70.3506L65.9106 119.576H64.5186V125H62.4066ZM77.9239 125V114.344H73.6039V112.472H84.3559V114.344H80.0359V125H77.9239ZM88.0374 130.256C87.5094 130.256 86.9494 130.096 86.3574 129.776L87.0774 128.336C87.3494 128.496 87.6214 128.576 87.8934 128.576C88.6774 128.576 89.3654 127.848 89.9574 126.392L90.5574 124.88L85.0614 112.472H87.2934L91.5174 122.864L95.3334 112.472H97.4214L91.5654 127.04C91.1334 128.112 90.6134 128.912 90.0054 129.44C89.3974 129.984 88.7414 130.256 88.0374 130.256ZM99.5316 125V112.472H106.012C106.764 112.472 107.388 112.624 107.884 112.928C108.38 113.216 108.748 113.592 108.988 114.056C109.244 114.52 109.372 115.016 109.372 115.544C109.372 116.216 109.212 116.824 108.892 117.368C108.572 117.896 108.108 118.296 107.5 118.568C108.22 118.776 108.804 119.152 109.252 119.696C109.7 120.224 109.924 120.88 109.924 121.664C109.924 122.72 109.548 123.544 108.796 124.136C108.06 124.712 107.092 125 105.892 125H99.5316ZM101.548 117.992H105.46C106.02 117.992 106.476 117.784 106.828 117.368C107.196 116.936 107.38 116.448 107.38 115.904C107.38 115.376 107.204 114.92 106.852 114.536C106.516 114.152 106.076 113.96 105.532 113.96H101.548V117.992ZM101.548 123.512H105.844C106.42 123.512 106.9 123.304 107.284 122.888C107.684 122.472 107.884 121.992 107.884 121.448C107.884 120.888 107.692 120.408 107.308 120.008C106.94 119.592 106.476 119.384 105.916 119.384H101.548V123.512ZM111.626 121.376C111.626 120.576 111.85 119.888 112.298 119.312C112.762 118.72 113.394 118.264 114.194 117.944C114.994 117.624 115.922 117.464 116.978 117.464C117.538 117.464 118.13 117.512 118.754 117.608C119.378 117.688 119.93 117.816 120.41 117.992V117.08C120.41 116.12 120.122 115.368 119.546 114.824C118.97 114.264 118.154 113.984 117.098 113.984C116.41 113.984 115.746 114.112 115.106 114.368C114.482 114.608 113.818 114.96 113.114 115.424L112.346 113.936C113.162 113.376 113.978 112.96 114.794 112.688C115.61 112.4 116.458 112.256 117.338 112.256C118.938 112.256 120.202 112.704 121.13 113.6C122.058 114.48 122.522 115.712 122.522 117.296V122.6C122.522 123.096 122.746 123.352 123.194 123.368V125C122.986 125.032 122.802 125.056 122.642 125.072C122.498 125.088 122.378 125.096 122.282 125.096C121.786 125.096 121.41 124.96 121.154 124.688C120.914 124.416 120.778 124.128 120.746 123.824L120.698 123.032C120.154 123.736 119.442 124.28 118.562 124.664C117.682 125.048 116.81 125.24 115.946 125.24C115.114 125.24 114.37 125.072 113.714 124.736C113.058 124.384 112.546 123.92 112.178 123.344C111.81 122.752 111.626 122.096 111.626 121.376ZM119.786 122.264C119.978 122.04 120.13 121.816 120.242 121.592C120.354 121.352 120.41 121.152 120.41 120.992V119.432C119.386 119.032 118.33 118.832 117.242 118.832C116.17 118.832 115.298 119.048 114.626 119.48C113.97 119.896 113.642 120.472 113.642 121.208C113.642 121.608 113.746 122 113.954 122.384C114.178 122.752 114.498 123.056 114.914 123.296C115.346 123.536 115.874 123.656 116.498 123.656C117.154 123.656 117.778 123.528 118.37 123.272C118.962 123 119.434 122.664 119.786 122.264ZM125.875 125V112.472H127.987V117.656H134.515V112.472H136.627V125H134.515V119.528H127.987V125H125.875ZM140.008 125V112.472H142.12V117.656H148.648V112.472H150.76V125H148.648V119.528H142.12V125H140.008ZM153.229 125L156.781 119.96C155.965 119.8 155.309 119.416 154.813 118.808C154.317 118.184 154.069 117.352 154.069 116.312C154.069 115.56 154.245 114.896 154.597 114.32C154.949 113.744 155.437 113.288 156.061 112.952C156.701 112.616 157.445 112.448 158.293 112.448H163.429V125H161.317V120.296H158.869L155.557 125H153.229ZM158.437 118.736H161.317V114.104H158.677C157.925 114.104 157.325 114.32 156.877 114.752C156.429 115.168 156.205 115.704 156.205 116.36C156.205 117.016 156.389 117.576 156.757 118.04C157.141 118.504 157.701 118.736 158.437 118.736ZM166.821 125V112.472H169.005L173.661 120.68L178.341 112.472H180.477V125H178.461V115.52L174.333 122.768H172.989L168.837 115.52V125H166.821Z" fill="white"/>
<g clip-path="url(#clip0_221_66)" filter="url(#filter0_d_221_66)">
<path d="M111.449 16.6738C111.507 13.701 110.409 10.8219 108.385 8.64388C106.36 6.46588 103.569 5.15936 100.6 5C98.6238 4.99847 96.6918 5.58739 95.0522 6.69125C92.976 5.58522 90.6604 5.00456 88.3079 5C84.9739 5.1084 81.7584 6.26194 79.1158 8.29754C76.4732 10.3332 74.5372 13.1479 73.5816 16.3438C71.0865 17.0909 68.9094 18.6438 67.3906 20.7597C65.8717 22.8756 65.0969 25.4351 65.1872 28.0381C65.0449 31.0679 66.105 34.0312 68.1368 36.2831C70.1686 38.5351 73.0076 39.8934 76.036 40.0625H82.2854L74.9429 53.4069C74.8777 53.5199 74.8422 53.6477 74.8397 53.7781C74.8228 53.8243 74.8158 53.8735 74.8191 53.9225L73.9735 62.3788V62.4613L73.2722 69.4531C73.2522 69.6529 73.2926 69.854 73.3882 70.0305C73.4838 70.207 73.6303 70.3508 73.8085 70.4431C73.9864 70.5366 74.187 70.5785 74.3875 70.5639C74.5879 70.5493 74.7803 70.4789 74.9429 70.3606L80.5116 66.0088L87.1941 60.77C87.367 60.6899 87.5059 60.551 87.586 60.3781L98.7854 40.0625H107.963C110.992 39.8934 113.831 38.5351 115.863 36.2831C117.894 34.0312 118.955 31.0679 118.812 28.0381C118.875 25.6222 118.205 23.2438 116.891 21.2155C115.577 19.1872 113.68 17.6039 111.449 16.6738ZM84.6572 40.0625H89.3597L80.8622 55.49L77.2529 53.51L84.6572 40.0625ZM75.5616 67.2463L75.9122 63.6493C76.8477 63.8816 77.7056 64.3561 78.3996 65.0249L75.5616 67.2463ZM80.0372 63.74L80.0166 63.7565C78.9642 62.662 77.6053 61.9113 76.1185 61.6033V61.5744L76.7166 55.5519L80.7179 57.7794C80.7385 57.7794 80.7385 57.8 80.7591 57.8C80.7797 57.8 80.7797 57.8206 80.8004 57.8206L84.8016 60.0275L80.0372 63.74ZM86.2866 58.4806H86.266L82.6772 56.48L91.711 40.0625H96.4135L86.2866 58.4806ZM107.963 38H76.036C73.5549 37.8308 71.2406 36.6898 69.5956 34.8247C67.9506 32.9596 67.1077 30.521 67.2497 28.0381C67.1517 25.8343 67.8101 23.6633 69.1156 21.8851C70.4211 20.1069 72.2953 18.8285 74.4272 18.2619H74.4685C76.6 18.4232 78.5829 19.4148 79.9908 21.0232C81.3987 22.6316 82.1189 24.7284 81.9966 26.8625C81.9966 27.136 82.1053 27.3983 82.2987 27.5917C82.4921 27.7851 82.7544 27.8938 83.0279 27.8938C83.3014 27.8938 83.5637 27.7851 83.7571 27.5917C83.9505 27.3983 84.0591 27.136 84.0591 26.8625C84.1496 24.4114 83.3683 22.0076 81.8541 20.078C80.3399 18.1485 78.1908 16.8181 75.7885 16.3231C76.6933 13.6941 78.3744 11.4015 80.6096 9.74808C82.8449 8.09465 85.5292 7.15822 88.3079 7.0625C90.4754 7.06195 92.6039 7.63858 94.4747 8.73313C94.4954 8.75375 94.516 8.75375 94.5366 8.77438C95.5276 9.46662 96.3664 10.3544 97.0013 11.3831C97.6363 12.4117 98.0539 13.5595 98.2285 14.7556C98.2491 14.8588 98.2491 14.9413 98.2697 15.0444C98.2997 15.2924 98.4187 15.5211 98.6045 15.688C98.7904 15.8549 99.0306 15.9487 99.2804 15.9519H99.4041C99.6759 15.9153 99.9228 15.7742 100.092 15.5585C100.262 15.3428 100.34 15.0696 100.312 14.7969C100.315 14.7678 100.307 14.7386 100.291 14.7144C99.9932 12.1409 98.7777 9.76104 96.8672 8.01125C98.0143 7.39198 99.2968 7.06605 100.6 7.0625C102.984 7.21629 105.218 8.27646 106.844 10.0254C108.47 11.7743 109.365 14.0794 109.345 16.4675C108.156 16.5973 107.009 16.9844 105.983 17.6019C105.337 17.9548 104.741 18.3917 104.21 18.9013C103.34 19.7227 102.615 20.685 102.065 21.7475C102.001 21.8674 101.962 21.999 101.95 22.1344C101.938 22.2699 101.954 22.4062 101.996 22.5354C102.039 22.6645 102.107 22.7837 102.197 22.8858C102.286 22.9879 102.396 23.0707 102.518 23.1294C102.657 23.2084 102.813 23.251 102.972 23.2531C103.163 23.2554 103.351 23.2046 103.515 23.1062C103.679 23.0079 103.812 22.866 103.9 22.6963C104.353 21.8056 104.968 21.008 105.715 20.345C106.217 19.8617 106.796 19.4645 107.427 19.1694C108.292 18.7323 109.243 18.4928 110.212 18.4681C110.232 18.4475 110.232 18.4475 110.253 18.4681C112.214 19.1632 113.902 20.4664 115.071 22.1878C116.239 23.9092 116.828 25.9589 116.75 28.0381C116.892 30.521 116.049 32.9596 114.404 34.8247C112.759 36.6898 110.445 37.8308 107.963 38ZM106.829 26.78C106.889 26.61 106.904 26.4273 106.871 26.2499C106.839 26.0726 106.76 25.9069 106.643 25.7694C106.528 25.6214 106.37 25.5132 106.19 25.46C105.927 25.378 105.643 25.401 105.397 25.524C105.151 25.6471 104.962 25.8607 104.87 26.12C104.477 27.2946 104.323 28.5357 104.416 29.7706C104.416 29.7761 104.414 29.7813 104.41 29.7852C104.406 29.7891 104.401 29.7913 104.395 29.7913C104.375 29.8325 104.375 29.8531 104.354 29.8738L104.416 29.8325C104.477 31.0452 104.808 32.229 105.385 33.2975C105.472 33.4641 105.602 33.604 105.762 33.7021C105.922 33.8002 106.105 33.8529 106.293 33.8544C106.459 33.855 106.623 33.8124 106.767 33.7306C106.888 33.6697 106.995 33.5853 107.082 33.4823C107.169 33.3793 107.235 33.2599 107.275 33.1311C107.316 33.0023 107.33 32.8667 107.317 32.7323C107.304 32.598 107.264 32.4675 107.2 32.3488C106.767 31.4932 106.511 30.559 106.447 29.6022C106.384 28.6454 106.513 27.6855 106.829 26.78ZM80.0579 31.0288C79.1442 31.3203 78.1804 31.4213 77.2261 31.3255C76.2718 31.2297 75.3473 30.9392 74.5097 30.4719C74.3906 30.4065 74.2598 30.3654 74.1248 30.3508C73.9897 30.3361 73.8531 30.3483 73.7228 30.3867C73.5924 30.425 73.471 30.4887 73.3653 30.5741C73.2597 30.6595 73.172 30.765 73.1072 30.8844C73.0427 31.0047 73.0027 31.1367 72.9895 31.2726C72.9764 31.4085 72.9904 31.5457 73.0307 31.6762C73.071 31.8066 73.1368 31.9278 73.2243 32.0326C73.3118 32.1375 73.4192 32.2239 73.5404 32.2869C74.9006 33.0293 76.4251 33.4193 77.9747 33.4213C78.8994 33.4218 79.8184 33.2756 80.6972 32.9881C80.827 32.9477 80.9473 32.8818 81.051 32.7941C81.1548 32.7065 81.24 32.5989 81.3015 32.4778C81.3631 32.3566 81.3997 32.2244 81.4093 32.0889C81.4188 31.9534 81.4011 31.8173 81.3572 31.6888C81.2723 31.429 81.0877 31.2137 80.8441 31.0899C80.6005 30.9662 80.3177 30.9442 80.0579 31.0288ZM97.7747 29.0488C97.2836 28.5541 96.7369 28.1181 96.1454 27.7494C95.5344 27.3545 94.8848 27.0228 94.2066 26.7594C93.5815 26.5114 92.9315 26.3316 92.2679 26.2231C91.9023 26.1413 91.5288 26.0998 91.1541 26.0994C91.0016 26.0164 90.83 25.9747 90.6564 25.9783C90.4828 25.9819 90.3131 26.0308 90.1641 26.12H90.1435C90.0904 26.0993 90.0315 26.0993 89.9785 26.12C88.8274 26.2052 87.7052 26.5208 86.6785 27.0481C86.4554 27.1824 86.2913 27.3961 86.2192 27.6463C86.1472 27.8965 86.1724 28.1647 86.2899 28.3971C86.4074 28.6294 86.6084 28.8088 86.8527 28.899C87.0969 28.9893 87.3662 28.9839 87.6066 28.8838C87.9473 28.7008 88.3069 28.5555 88.6791 28.4506H88.6997C89.5065 28.2004 90.3528 28.1024 91.1954 28.1619C91.9741 28.2128 92.7399 28.3868 93.4641 28.6775C94.0603 28.9067 94.6278 29.2043 95.1554 29.5644C95.7354 29.9555 96.2683 30.4123 96.7435 30.9256C97.3442 31.5735 97.851 32.3025 98.2491 33.0913C98.3342 33.2648 98.4663 33.411 98.6304 33.5131C98.7945 33.6152 98.984 33.6691 99.1772 33.6688C99.3427 33.6643 99.505 33.622 99.6516 33.545C99.7715 33.4834 99.8779 33.3987 99.9647 33.2956C100.051 33.1925 100.117 33.0732 100.157 32.9447C100.198 32.8161 100.212 32.6808 100.199 32.5466C100.187 32.4125 100.148 32.2821 100.085 32.1631C99.5065 30.9956 98.7242 29.9409 97.7747 29.0488ZM91.1747 13.8275C91.383 13.6849 91.5317 13.471 91.5928 13.2261C91.6539 12.9812 91.6231 12.7225 91.5062 12.4988C91.3892 12.2751 91.1944 12.1021 90.9584 12.0125C90.7225 11.9229 90.4619 11.9229 90.226 12.0125C89.3704 12.4457 88.4363 12.7018 87.4795 12.7656C86.5226 12.8294 85.5627 12.6995 84.6572 12.3838C84.5286 12.3383 84.3923 12.3187 84.2561 12.3263C84.1199 12.3339 83.9865 12.3684 83.8638 12.4279C83.741 12.4873 83.6312 12.5706 83.5409 12.6727C83.4505 12.7749 83.3813 12.894 83.3372 13.0231C83.2574 13.2858 83.2813 13.5691 83.4041 13.8147C83.5269 14.0603 83.7392 14.2494 83.9972 14.3431C84.9823 14.6679 86.0125 14.835 87.0497 14.8381C88.487 14.8465 89.9041 14.4993 91.1747 13.8275Z" fill="white"/>
</g>
<defs>
<filter id="filter0_d_221_66" x="44" y="0" width="96" height="96" filterUnits="userSpaceOnUse" color-interpolation-filters="sRGB">
<feFlood flood-opacity="0" result="BackgroundImageFix"/>
<feColorMatrix in="SourceAlpha" type="matrix" values="0 0 0 0 0 0 0 0 0 0 0 0 0 0 0 0 0 0 127 0" result="hardAlpha"/>
<feOffset dy="10"/>
<feGaussianBlur stdDeviation="7.5"/>
<feComposite in2="hardAlpha" operator="out"/>
<feColorMatrix type="matrix" values="0 0 0 0 0 0 0 0 0 0 0 0 0 0 0 0 0 0 0.25 0"/>
<feBlend mode="normal" in2="BackgroundImageFix" result="effect1_dropShadow_221_66"/>
<feBlend mode="normal" in="SourceGraphic" in2="effect1_dropShadow_221_66" result="shape"/>
</filter>
<clipPath id="clip0_221_66">
<rect width="66" height="66" fill="white" transform="translate(59 5)"/>
</clipPath>
</defs>
</svg>
