<svg width="278" height="160" viewBox="0 0 278 160" fill="none" xmlns="http://www.w3.org/2000/svg">
<path opacity="0.5" d="M1.26803 113.36C1.26803 112.32 1.44403 111.304 1.79603 110.312C2.16403 109.304 2.69203 108.392 3.38003 107.576C4.08403 106.744 4.94003 106.088 5.94803 105.608C6.95603 105.112 8.10003 104.864 9.38003 104.864C10.9 104.864 12.204 105.216 13.292 105.92C14.38 106.608 15.188 107.496 15.716 108.584L14.012 109.688C13.676 108.968 13.244 108.4 12.716 107.984C12.204 107.552 11.644 107.248 11.036 107.072C10.444 106.896 9.86003 106.808 9.28403 106.808C8.34003 106.808 7.50003 107 6.76403 107.384C6.04403 107.768 5.43603 108.28 4.94003 108.92C4.44403 109.56 4.06803 110.28 3.81203 111.08C3.57203 111.864 3.45203 112.656 3.45203 113.456C3.45203 114.336 3.59603 115.184 3.88403 116C4.18803 116.816 4.60403 117.536 5.13203 118.16C5.66003 118.784 6.28403 119.28 7.00403 119.648C7.72403 120.016 8.50803 120.2 9.35603 120.2C9.94803 120.2 10.556 120.096 11.18 119.888C11.804 119.68 12.388 119.36 12.932 118.928C13.476 118.48 13.908 117.904 14.228 117.2L16.028 118.184C15.676 119.032 15.132 119.752 14.396 120.344C13.66 120.936 12.836 121.384 11.924 121.688C11.028 121.992 10.14 122.144 9.26003 122.144C8.09203 122.144 7.02003 121.896 6.04403 121.4C5.06803 120.888 4.22003 120.216 3.50003 119.384C2.79603 118.536 2.24403 117.592 1.84403 116.552C1.46003 115.496 1.26803 114.432 1.26803 113.36ZM21.4434 122V111.344H17.1234V109.472H27.8754V111.344H23.5554V122H21.4434ZM29.997 107.12V104.48H32.109V107.12H29.997ZM29.997 122V109.472H32.109V122H29.997ZM35.5042 122V109.472H37.6162V114.656H44.1442V109.472H46.2562V122H44.1442V116.528H37.6162V122H35.5042ZM55.133 122.24C53.885 122.24 52.781 121.944 51.821 121.352C50.877 120.744 50.141 119.952 49.613 118.976C49.085 117.984 48.821 116.912 48.821 115.76C48.821 114.592 49.085 113.52 49.613 112.544C50.157 111.552 50.901 110.76 51.845 110.168C52.805 109.56 53.901 109.256 55.133 109.256C56.381 109.256 57.477 109.56 58.421 110.168C59.381 110.76 60.125 111.552 60.653 112.544C61.197 113.52 61.469 114.592 61.469 115.76C61.469 116.912 61.197 117.984 60.653 118.976C60.125 119.952 59.389 120.744 58.445 121.352C57.501 121.944 56.397 122.24 55.133 122.24ZM50.981 115.784C50.981 116.648 51.165 117.432 51.533 118.136C51.917 118.84 52.421 119.4 53.045 119.816C53.669 120.216 54.365 120.416 55.133 120.416C55.901 120.416 56.597 120.208 57.221 119.792C57.861 119.376 58.365 118.816 58.733 118.112C59.117 117.392 59.309 116.6 59.309 115.736C59.309 114.872 59.117 114.088 58.733 113.384C58.365 112.68 57.861 112.12 57.221 111.704C56.597 111.288 55.901 111.08 55.133 111.08C54.365 111.08 53.669 111.296 53.045 111.728C52.421 112.144 51.917 112.704 51.533 113.408C51.165 114.112 50.981 114.904 50.981 115.784ZM64.0042 122V109.472H70.4842C71.2362 109.472 71.8602 109.624 72.3562 109.928C72.8522 110.216 73.2202 110.592 73.4602 111.056C73.7162 111.52 73.8442 112.016 73.8442 112.544C73.8442 113.216 73.6842 113.824 73.3642 114.368C73.0442 114.896 72.5802 115.296 71.9722 115.568C72.6922 115.776 73.2762 116.152 73.7242 116.696C74.1722 117.224 74.3962 117.88 74.3962 118.664C74.3962 119.72 74.0202 120.544 73.2682 121.136C72.5322 121.712 71.5642 122 70.3642 122H64.0042ZM66.0202 114.992H69.9322C70.4922 114.992 70.9482 114.784 71.3002 114.368C71.6682 113.936 71.8522 113.448 71.8522 112.904C71.8522 112.376 71.6762 111.92 71.3242 111.536C70.9882 111.152 70.5482 110.96 70.0042 110.96H66.0202V114.992ZM66.0202 120.512H70.3162C70.8922 120.512 71.3722 120.304 71.7562 119.888C72.1562 119.472 72.3562 118.992 72.3562 118.448C72.3562 117.888 72.1642 117.408 71.7802 117.008C71.4122 116.592 70.9482 116.384 70.3882 116.384H66.0202V120.512ZM77.0589 122V109.496H79.1709V119.168L86.1789 109.472H88.0989V122H85.9869V112.52L79.0749 122H77.0589ZM91.4495 122V109.472H93.6335L98.2895 117.68L102.97 109.472H105.106V122H103.09V112.52L98.9615 119.768H97.6175L93.4655 112.52V122H91.4495ZM108.489 122V109.496H110.601V119.168L117.609 109.472H119.529V122H117.417V112.52L110.505 122H108.489ZM128.95 122V109.472H139.342V122H137.23V111.344H131.062V122H128.95ZM141.771 118.376C141.771 117.576 141.995 116.888 142.443 116.312C142.907 115.72 143.539 115.264 144.339 114.944C145.139 114.624 146.067 114.464 147.123 114.464C147.683 114.464 148.275 114.512 148.899 114.608C149.523 114.688 150.075 114.816 150.555 114.992V114.08C150.555 113.12 150.267 112.368 149.691 111.824C149.115 111.264 148.299 110.984 147.243 110.984C146.555 110.984 145.891 111.112 145.251 111.368C144.627 111.608 143.963 111.96 143.259 112.424L142.491 110.936C143.307 110.376 144.123 109.96 144.939 109.688C145.755 109.4 146.603 109.256 147.483 109.256C149.083 109.256 150.347 109.704 151.275 110.6C152.203 111.48 152.667 112.712 152.667 114.296V119.6C152.667 120.096 152.891 120.352 153.339 120.368V122C153.131 122.032 152.947 122.056 152.787 122.072C152.643 122.088 152.523 122.096 152.427 122.096C151.931 122.096 151.555 121.96 151.299 121.688C151.059 121.416 150.923 121.128 150.891 120.824L150.843 120.032C150.299 120.736 149.587 121.28 148.707 121.664C147.827 122.048 146.955 122.24 146.091 122.24C145.259 122.24 144.515 122.072 143.859 121.736C143.203 121.384 142.691 120.92 142.323 120.344C141.955 119.752 141.771 119.096 141.771 118.376ZM149.931 119.264C150.123 119.04 150.275 118.816 150.387 118.592C150.499 118.352 150.555 118.152 150.555 117.992V116.432C149.531 116.032 148.475 115.832 147.387 115.832C146.315 115.832 145.443 116.048 144.771 116.48C144.115 116.896 143.787 117.472 143.787 118.208C143.787 118.608 143.891 119 144.099 119.384C144.323 119.752 144.643 120.056 145.059 120.296C145.491 120.536 146.019 120.656 146.643 120.656C147.299 120.656 147.923 120.528 148.515 120.272C149.107 120 149.579 119.664 149.931 119.264ZM156.02 122V109.472H158.132V114.656H164.66V109.472H166.772V122H164.66V116.528H158.132V122H156.02ZM175.721 122.24C174.473 122.24 173.369 121.944 172.409 121.352C171.449 120.76 170.697 119.968 170.153 118.976C169.609 117.984 169.337 116.904 169.337 115.736C169.337 114.552 169.609 113.472 170.153 112.496C170.697 111.52 171.449 110.736 172.409 110.144C173.385 109.552 174.497 109.256 175.745 109.256C177.009 109.256 178.105 109.56 179.033 110.168C179.977 110.76 180.705 111.544 181.217 112.52C181.745 113.48 182.009 114.52 182.009 115.64C182.009 115.992 181.993 116.264 181.961 116.456H171.569C171.633 117.272 171.857 118 172.241 118.64C172.641 119.264 173.153 119.76 173.777 120.128C174.401 120.48 175.073 120.656 175.793 120.656C176.561 120.656 177.281 120.464 177.953 120.08C178.641 119.696 179.113 119.192 179.369 118.568L181.193 119.072C180.793 120 180.097 120.76 179.105 121.352C178.113 121.944 176.985 122.24 175.721 122.24ZM171.497 114.992H180.041C179.977 114.176 179.745 113.456 179.345 112.832C178.945 112.208 178.433 111.72 177.809 111.368C177.185 111.016 176.497 110.84 175.745 110.84C175.009 110.84 174.329 111.016 173.705 111.368C173.081 111.72 172.569 112.208 172.169 112.832C171.785 113.456 171.561 114.176 171.497 114.992ZM183.252 122.096V120.2C183.796 120.184 184.276 119.984 184.692 119.6C185.108 119.216 185.436 118.512 185.676 117.488C185.932 116.464 186.092 115 186.156 113.096L186.3 109.472H194.82V122H192.708V111.344H188.172L188.124 113.288C188.044 115.56 187.812 117.336 187.428 118.616C187.06 119.896 186.524 120.792 185.82 121.304C185.132 121.816 184.276 122.08 183.252 122.096ZM197.295 122L200.847 116.96C200.031 116.8 199.375 116.416 198.879 115.808C198.383 115.184 198.135 114.352 198.135 113.312C198.135 112.56 198.311 111.896 198.663 111.32C199.015 110.744 199.503 110.288 200.127 109.952C200.767 109.616 201.511 109.448 202.359 109.448H207.495V122H205.383V117.296H202.935L199.623 122H197.295ZM202.503 115.736H205.383V111.104H202.743C201.991 111.104 201.391 111.32 200.943 111.752C200.495 112.168 200.271 112.704 200.271 113.36C200.271 114.016 200.455 114.576 200.823 115.04C201.207 115.504 201.767 115.736 202.503 115.736ZM210.887 122V109.472H213.071L217.727 117.68L222.407 109.472H224.543V122H222.527V112.52L218.399 119.768H217.055L212.903 112.52V122H210.887ZM227.926 122V109.496H230.038V119.168L237.046 109.472H238.966V122H236.854V112.52L229.942 122H227.926ZM251.459 122V111.344H247.139V109.472H257.891V111.344H253.571V122H251.459ZM259.029 118.376C259.029 117.576 259.253 116.888 259.701 116.312C260.165 115.72 260.797 115.264 261.597 114.944C262.397 114.624 263.325 114.464 264.381 114.464C264.941 114.464 265.533 114.512 266.157 114.608C266.781 114.688 267.333 114.816 267.813 114.992V114.08C267.813 113.12 267.525 112.368 266.949 111.824C266.373 111.264 265.557 110.984 264.501 110.984C263.813 110.984 263.149 111.112 262.509 111.368C261.885 111.608 261.221 111.96 260.517 112.424L259.749 110.936C260.565 110.376 261.381 109.96 262.197 109.688C263.013 109.4 263.861 109.256 264.741 109.256C266.341 109.256 267.605 109.704 268.533 110.6C269.461 111.48 269.925 112.712 269.925 114.296V119.6C269.925 120.096 270.149 120.352 270.597 120.368V122C270.389 122.032 270.205 122.056 270.045 122.072C269.901 122.088 269.781 122.096 269.685 122.096C269.189 122.096 268.813 121.96 268.557 121.688C268.317 121.416 268.181 121.128 268.149 120.824L268.101 120.032C267.557 120.736 266.845 121.28 265.965 121.664C265.085 122.048 264.213 122.24 263.349 122.24C262.517 122.24 261.773 122.072 261.117 121.736C260.461 121.384 259.949 120.92 259.581 120.344C259.213 119.752 259.029 119.096 259.029 118.376ZM267.189 119.264C267.381 119.04 267.533 118.816 267.645 118.592C267.757 118.352 267.813 118.152 267.813 117.992V116.432C266.789 116.032 265.733 115.832 264.645 115.832C263.573 115.832 262.701 116.048 262.029 116.48C261.373 116.896 261.045 117.472 261.045 118.208C261.045 118.608 261.149 119 261.357 119.384C261.581 119.752 261.901 120.056 262.317 120.296C262.749 120.536 263.277 120.656 263.901 120.656C264.557 120.656 265.181 120.528 265.773 120.272C266.365 120 266.837 119.664 267.189 119.264ZM14.0706 153V140.472H24.4626V153H22.3506V142.344H16.1826V153H14.0706ZM27.8759 138.12V135.48H29.9879V138.12H27.8759ZM27.8759 153V140.472H29.9879V153H27.8759ZM32.0151 155.952V151.128H32.2791C32.7431 151.128 33.1591 150.936 33.5271 150.552C33.9111 150.152 34.2231 149.448 34.4631 148.44C34.7031 147.416 34.8471 145.968 34.8951 144.096L35.0151 140.472H43.5351V151.128H45.2391V155.952H43.3671V153H33.8871V155.952H32.0151ZM35.2311 151.128H41.4231V142.344H36.8871L36.8151 144.288C36.7511 146.336 36.5831 147.888 36.3111 148.944C36.0551 150 35.6951 150.728 35.2311 151.128ZM46.4828 153.096V151.2C47.0268 151.184 47.5068 150.984 47.9228 150.6C48.3388 150.216 48.6668 149.512 48.9068 148.488C49.1628 147.464 49.3228 146 49.3868 144.096L49.5308 140.472H58.0508V153H55.9388V142.344H51.4028L51.3548 144.288C51.2748 146.56 51.0428 148.336 50.6588 149.616C50.2908 150.896 49.7548 151.792 49.0508 152.304C48.3628 152.816 47.5068 153.08 46.4828 153.096ZM66.9338 153.24C65.6858 153.24 64.5818 152.944 63.6218 152.352C62.6778 151.744 61.9418 150.952 61.4138 149.976C60.8858 148.984 60.6218 147.912 60.6218 146.76C60.6218 145.592 60.8858 144.52 61.4138 143.544C61.9578 142.552 62.7018 141.76 63.6458 141.168C64.6058 140.56 65.7018 140.256 66.9338 140.256C68.1818 140.256 69.2778 140.56 70.2218 141.168C71.1818 141.76 71.9258 142.552 72.4538 143.544C72.9978 144.52 73.2698 145.592 73.2698 146.76C73.2698 147.912 72.9978 148.984 72.4538 149.976C71.9258 150.952 71.1898 151.744 70.2458 152.352C69.3018 152.944 68.1978 153.24 66.9338 153.24ZM62.7818 146.784C62.7818 147.648 62.9658 148.432 63.3338 149.136C63.7178 149.84 64.2218 150.4 64.8458 150.816C65.4698 151.216 66.1658 151.416 66.9338 151.416C67.7018 151.416 68.3978 151.208 69.0218 150.792C69.6618 150.376 70.1658 149.816 70.5338 149.112C70.9178 148.392 71.1098 147.6 71.1098 146.736C71.1098 145.872 70.9178 145.088 70.5338 144.384C70.1658 143.68 69.6618 143.12 69.0218 142.704C68.3978 142.288 67.7018 142.08 66.9338 142.08C66.1658 142.08 65.4698 142.296 64.8458 142.728C64.2218 143.144 63.7178 143.704 63.3338 144.408C62.9658 145.112 62.7818 145.904 62.7818 146.784ZM75.805 153V140.472H83.533V142.344H77.917V153H75.805ZM91.1682 153.24C89.9202 153.24 88.8162 152.944 87.8562 152.352C86.9122 151.744 86.1762 150.952 85.6482 149.976C85.1202 148.984 84.8562 147.912 84.8562 146.76C84.8562 145.592 85.1202 144.52 85.6482 143.544C86.1922 142.552 86.9362 141.76 87.8802 141.168C88.8402 140.56 89.9362 140.256 91.1682 140.256C92.4162 140.256 93.5122 140.56 94.4562 141.168C95.4162 141.76 96.1602 142.552 96.6882 143.544C97.2322 144.52 97.5042 145.592 97.5042 146.76C97.5042 147.912 97.2322 148.984 96.6882 149.976C96.1602 150.952 95.4242 151.744 94.4802 152.352C93.5362 152.944 92.4322 153.24 91.1682 153.24ZM87.0162 146.784C87.0162 147.648 87.2002 148.432 87.5682 149.136C87.9522 149.84 88.4562 150.4 89.0802 150.816C89.7042 151.216 90.4002 151.416 91.1682 151.416C91.9362 151.416 92.6322 151.208 93.2562 150.792C93.8962 150.376 94.4002 149.816 94.7682 149.112C95.1522 148.392 95.3442 147.6 95.3442 146.736C95.3442 145.872 95.1522 145.088 94.7682 144.384C94.4002 143.68 93.8962 143.12 93.2562 142.704C92.6322 142.288 91.9362 142.08 91.1682 142.08C90.4002 142.08 89.7042 142.296 89.0802 142.728C88.4562 143.144 87.9522 143.704 87.5682 144.408C87.2002 145.112 87.0162 145.904 87.0162 146.784ZM100.039 153V140.472H106.519C107.271 140.472 107.895 140.624 108.391 140.928C108.887 141.216 109.255 141.592 109.495 142.056C109.751 142.52 109.879 143.016 109.879 143.544C109.879 144.216 109.719 144.824 109.399 145.368C109.079 145.896 108.615 146.296 108.007 146.568C108.727 146.776 109.311 147.152 109.759 147.696C110.207 148.224 110.431 148.88 110.431 149.664C110.431 150.72 110.055 151.544 109.303 152.136C108.567 152.712 107.599 153 106.399 153H100.039ZM102.055 145.992H105.967C106.527 145.992 106.983 145.784 107.335 145.368C107.703 144.936 107.887 144.448 107.887 143.904C107.887 143.376 107.711 142.92 107.359 142.536C107.023 142.152 106.583 141.96 106.039 141.96H102.055V145.992ZM102.055 151.512H106.351C106.927 151.512 107.407 151.304 107.791 150.888C108.191 150.472 108.391 149.992 108.391 149.448C108.391 148.888 108.199 148.408 107.815 148.008C107.447 147.592 106.983 147.384 106.423 147.384H102.055V151.512ZM113.094 153V140.496H115.206V150.168L122.214 140.472H124.134V153H122.022V143.52L115.11 153H113.094ZM127.485 153V140.472H129.669L134.325 148.68L139.005 140.472H141.141V153H139.125V143.52L134.997 150.768H133.653L129.501 143.52V153H127.485ZM150.594 153V140.472H160.986V153H158.874V142.344H152.706V153H150.594ZM169.871 153.24C168.623 153.24 167.519 152.944 166.559 152.352C165.615 151.744 164.879 150.952 164.351 149.976C163.823 148.984 163.559 147.912 163.559 146.76C163.559 145.592 163.823 144.52 164.351 143.544C164.895 142.552 165.639 141.76 166.583 141.168C167.543 140.56 168.639 140.256 169.871 140.256C171.119 140.256 172.215 140.56 173.159 141.168C174.119 141.76 174.863 142.552 175.391 143.544C175.935 144.52 176.207 145.592 176.207 146.76C176.207 147.912 175.935 148.984 175.391 149.976C174.863 150.952 174.127 151.744 173.183 152.352C172.239 152.944 171.135 153.24 169.871 153.24ZM165.719 146.784C165.719 147.648 165.903 148.432 166.271 149.136C166.655 149.84 167.159 150.4 167.783 150.816C168.407 151.216 169.103 151.416 169.871 151.416C170.639 151.416 171.335 151.208 171.959 150.792C172.599 150.376 173.103 149.816 173.471 149.112C173.855 148.392 174.047 147.6 174.047 146.736C174.047 145.872 173.855 145.088 173.471 144.384C173.103 143.68 172.599 143.12 171.959 142.704C171.335 142.288 170.639 142.08 169.871 142.08C169.103 142.08 168.407 142.296 167.783 142.728C167.159 143.144 166.655 143.704 166.271 144.408C165.903 145.112 165.719 145.904 165.719 146.784ZM178.743 153V140.472H180.855V145.632H182.247L186.183 140.472H188.583L183.903 146.544L189.135 153H186.687L182.247 147.576H180.855V153H178.743ZM197.956 153.24C196.932 153.24 196.02 152.984 195.22 152.472C194.42 151.96 193.788 151.312 193.324 150.528V158.112H191.212V140.472H193.084V142.824C193.58 142.056 194.228 141.44 195.028 140.976C195.828 140.496 196.7 140.256 197.644 140.256C198.508 140.256 199.3 140.432 200.02 140.784C200.74 141.136 201.364 141.616 201.892 142.224C202.42 142.832 202.828 143.528 203.116 144.312C203.42 145.08 203.572 145.888 203.572 146.736C203.572 147.92 203.332 149.008 202.852 150C202.388 150.992 201.732 151.784 200.884 152.376C200.036 152.952 199.06 153.24 197.956 153.24ZM197.308 151.416C198.14 151.416 198.86 151.192 199.468 150.744C200.076 150.296 200.548 149.712 200.884 148.992C201.236 148.272 201.412 147.52 201.412 146.736C201.412 145.888 201.22 145.112 200.836 144.408C200.468 143.704 199.956 143.144 199.3 142.728C198.66 142.296 197.932 142.08 197.116 142.08C196.62 142.08 196.092 142.208 195.532 142.464C194.988 142.72 194.508 143.064 194.092 143.496C193.692 143.912 193.436 144.376 193.324 144.888V148.464C193.676 149.296 194.212 150 194.932 150.576C195.668 151.136 196.46 151.416 197.308 151.416ZM206.141 153V140.496H208.253V150.168L215.261 140.472H217.181V153H215.069V143.52L208.157 153H206.141ZM223.604 153V142.344H219.284V140.472H230.036V142.344H225.716V153H223.604ZM235.205 153V142.344H230.885V140.472H241.637V142.344H237.317V153H235.205ZM242.729 153L246.281 147.96C245.465 147.8 244.809 147.416 244.313 146.808C243.817 146.184 243.569 145.352 243.569 144.312C243.569 143.56 243.745 142.896 244.097 142.32C244.449 141.744 244.937 141.288 245.561 140.952C246.201 140.616 246.945 140.448 247.793 140.448H252.929V153H250.817V148.296H248.369L245.057 153H242.729ZM247.937 146.736H250.817V142.104H248.177C247.425 142.104 246.825 142.32 246.377 142.752C245.929 143.168 245.705 143.704 245.705 144.36C245.705 145.016 245.889 145.576 246.257 146.04C246.641 146.504 247.201 146.736 247.937 146.736ZM256.321 153V140.472H258.505L263.161 148.68L267.841 140.472H269.977V153H267.961V143.52L263.833 150.768H262.489L258.337 143.52V153H256.321Z" fill="white"/>
<g filter="url(#filter0_d_221_70)">
<path d="M168.674 63.1094L160.754 24.8295C160.628 24.2222 160.087 23.7801 159.46 23.7801H118.54C117.913 23.7801 117.372 24.2222 117.246 24.8295L109.326 63.1094C109.247 63.4988 109.346 63.9015 109.597 64.2117C109.848 64.5219 110.224 64.7001 110.62 64.7001H167.38C167.776 64.7001 168.152 64.5219 168.403 64.2117C168.654 63.9081 168.753 63.4988 168.674 63.1094ZM161.796 42.9201C161.783 42.9201 161.777 42.9201 161.77 42.9201H140.32V26.42H158.384L161.796 42.9201ZM119.616 26.42H137.68V42.9201H116.23C116.217 42.9201 116.21 42.9201 116.204 42.9201L119.616 26.42ZM115.682 45.4347C115.847 45.5138 116.032 45.5601 116.23 45.5601H137.68V62.0601H112.244L115.682 45.4347ZM140.32 62.0601V45.5601H161.77C161.968 45.5601 162.153 45.5138 162.318 45.4347L165.756 62.0601H140.32ZM143.62 12.56C145.442 12.56 146.92 14.0384 146.92 15.86C146.92 16.586 147.514 17.18 148.24 17.18C148.966 17.18 149.56 16.586 149.56 15.86C149.56 14.0384 151.038 12.56 152.86 12.56C153.586 12.56 154.18 11.966 154.18 11.24C154.18 10.514 153.586 9.92005 152.86 9.92005C151.038 9.92005 149.56 8.44165 149.56 6.62005C149.56 5.89405 148.966 5.30005 148.24 5.30005C147.514 5.30005 146.92 5.89405 146.92 6.62005C146.92 8.44165 145.442 9.92005 143.62 9.92005C142.894 9.92005 142.3 10.514 142.3 11.24C142.3 11.966 142.894 12.56 143.62 12.56ZM148.24 10.3424C148.504 10.6724 148.808 10.9694 149.138 11.24C148.808 11.504 148.511 11.8076 148.24 12.1376C147.976 11.8076 147.672 11.5106 147.342 11.24C147.672 10.976 147.976 10.6724 148.24 10.3424ZM125.14 15.2C126.962 15.2 128.44 16.6784 128.44 18.5C128.44 19.226 129.034 19.82 129.76 19.82C130.486 19.82 131.08 19.226 131.08 18.5C131.08 16.6784 132.558 15.2 134.38 15.2C135.106 15.2 135.7 14.606 135.7 13.88C135.7 13.154 135.106 12.56 134.38 12.56C132.558 12.56 131.08 11.0816 131.08 9.26005C131.08 8.53405 130.486 7.94005 129.76 7.94005C129.034 7.94005 128.44 8.53405 128.44 9.26005C128.44 11.0816 126.962 12.56 125.14 12.56C124.414 12.56 123.82 13.154 123.82 13.88C123.82 14.606 124.414 15.2 125.14 15.2ZM129.76 12.9824C130.024 13.3124 130.328 13.6094 130.658 13.88C130.328 14.144 130.031 14.4476 129.76 14.7776C129.496 14.4476 129.192 14.1506 128.862 13.88C129.192 13.616 129.496 13.3124 129.76 12.9824Z" fill="white"/>
</g>
<defs>
<filter id="filter0_d_221_70" x="91" y="-3" width="96" height="96" filterUnits="userSpaceOnUse" color-interpolation-filters="sRGB">
<feFlood flood-opacity="0" result="BackgroundImageFix"/>
<feColorMatrix in="SourceAlpha" type="matrix" values="0 0 0 0 0 0 0 0 0 0 0 0 0 0 0 0 0 0 127 0" result="hardAlpha"/>
<feOffset dy="10"/>
<feGaussianBlur stdDeviation="7.5"/>
<feComposite in2="hardAlpha" operator="out"/>
<feColorMatrix type="matrix" values="0 0 0 0 0 0 0 0 0 0 0 0 0 0 0 0 0 0 0.25 0"/>
<feBlend mode="normal" in2="BackgroundImageFix" result="effect1_dropShadow_221_70"/>
<feBlend mode="normal" in="SourceGraphic" in2="effect1_dropShadow_221_70" result="shape"/>
</filter>
</defs>
</svg>
